<?xml version="1.0" encoding="UTF-8" standalone="no"?>
<!DOCTYPE svg PUBLIC "-//W3C//DTD SVG 1.1//EN"
 "http://www.w3.org/Graphics/SVG/1.1/DTD/svg11.dtd">
<!-- Generated by graphviz version 2.40.1 (20161225.0304)
 -->
<!-- Title: oneDegreeRelationshipsDiagram Pages: 1 -->
<svg width="676pt" height="598pt"
 viewBox="0.00 0.00 676.00 597.62" xmlns="http://www.w3.org/2000/svg" xmlns:xlink="http://www.w3.org/1999/xlink">
<g id="graph0" class="graph" transform="scale(1 1) rotate(0) translate(4 593.622)">
<title>oneDegreeRelationshipsDiagram</title>
<polygon fill="#ffffff" stroke="transparent" points="-4,4 -4,-593.622 672,-593.622 672,4 -4,4"/>
<text text-anchor="middle" x="72.4936" y="-7.3" font-family="Helvetica,sans-Serif" font-size="11.00" fill="#000000">Generated by SchemaSpy</text>
<!-- care_team -->
<g id="node1" class="node">
<title>care_team</title>
<g id="a_node1"><a xlink:href="../../tables/care_team.html" xlink:title="care_team" target="_top">
<polygon fill="#ffffff" stroke="transparent" points="504,-324.7 504,-458.7 660,-458.7 660,-324.7 504,-324.7"/>
<polygon fill="#f5f5f5" stroke="transparent" points="506,-433.7 506,-456.7 658,-456.7 658,-433.7 506,-433.7"/>
<polygon fill="none" stroke="#000000" points="506,-433.7 506,-456.7 658,-456.7 658,-433.7 506,-433.7"/>
<text text-anchor="start" x="511" y="-442.3" font-family="Helvetica,sans-Serif" font-weight="bold" font-size="11.00" fill="#000000">care_team</text>
<text text-anchor="start" x="623.0437" y="-441.8" font-family="Helvetica,sans-Serif" font-size="11.00" fill="#000000">[table]</text>
<polygon fill="none" stroke="#000000" points="506,-411.7 506,-433.7 596,-433.7 596,-411.7 506,-411.7"/>
<image xlink:href="../../images/foreignKeys.png" width="11px" height="12px" preserveAspectRatio="xMinYMin meet" x="511" y="-428.7"/>
<text text-anchor="start" x="526" y="-418.8" font-family="Helvetica,sans-Serif" font-size="11.00" fill="#000000">created_by</text>
<polygon fill="none" stroke="#000000" points="596,-411.7 596,-433.7 658,-433.7 658,-411.7 596,-411.7"/>
<text text-anchor="start" x="598.878" y="-419.4" font-family="Helvetica,sans-Serif" font-size="11.00" fill="#000000">unknown[0]</text>
<polygon fill="none" stroke="#000000" points="506,-389.7 506,-411.7 596,-411.7 596,-389.7 506,-389.7"/>
<image xlink:href="../../images/foreignKeys.png" width="11px" height="12px" preserveAspectRatio="xMinYMin meet" x="511" y="-406.7"/>
<text text-anchor="start" x="526" y="-396.8" font-family="Helvetica,sans-Serif" font-size="11.00" fill="#000000">pid</text>
<polygon fill="none" stroke="#000000" points="596,-389.7 596,-411.7 658,-411.7 658,-389.7 596,-389.7"/>
<text text-anchor="start" x="598.878" y="-397.4" font-family="Helvetica,sans-Serif" font-size="11.00" fill="#000000">unknown[0]</text>
<polygon fill="none" stroke="#000000" points="506,-367.7 506,-389.7 596,-389.7 596,-367.7 506,-367.7"/>
<image xlink:href="../../images/foreignKeys.png" width="11px" height="12px" preserveAspectRatio="xMinYMin meet" x="511" y="-384.7"/>
<text text-anchor="start" x="526" y="-374.8" font-family="Helvetica,sans-Serif" font-size="11.00" fill="#000000">status</text>
<polygon fill="none" stroke="#000000" points="596,-367.7 596,-389.7 658,-389.7 658,-367.7 596,-367.7"/>
<text text-anchor="start" x="598.878" y="-375.4" font-family="Helvetica,sans-Serif" font-size="11.00" fill="#000000">unknown[0]</text>
<polygon fill="none" stroke="#000000" points="506,-345.7 506,-367.7 596,-367.7 596,-345.7 506,-345.7"/>
<image xlink:href="../../images/foreignKeys.png" width="11px" height="12px" preserveAspectRatio="xMinYMin meet" x="511" y="-362.7"/>
<text text-anchor="start" x="526" y="-352.8" font-family="Helvetica,sans-Serif" font-size="11.00" fill="#000000">updated_by</text>
<polygon fill="none" stroke="#000000" points="596,-345.7 596,-367.7 658,-367.7 658,-345.7 596,-345.7"/>
<text text-anchor="start" x="598.878" y="-353.4" font-family="Helvetica,sans-Serif" font-size="11.00" fill="#000000">unknown[0]</text>
<polygon fill="#ffffff" stroke="transparent" points="506,-326.7 506,-345.7 555,-345.7 555,-326.7 506,-326.7"/>
<polygon fill="none" stroke="#000000" points="506,-326.7 506,-345.7 555,-345.7 555,-326.7 506,-326.7"/>
<text text-anchor="start" x="509" y="-332.8" font-family="Helvetica,sans-Serif" font-size="11.00" fill="#000000">&lt; 4</text>
<polygon fill="#ffffff" stroke="transparent" points="555,-326.7 555,-345.7 596,-345.7 596,-326.7 555,-326.7"/>
<polygon fill="none" stroke="#000000" points="555,-326.7 555,-345.7 596,-345.7 596,-326.7 555,-326.7"/>
<text text-anchor="start" x="586.8862" y="-332.8" font-family="Helvetica,sans-Serif" font-size="11.00" fill="#000000"> &#160;</text>
<polygon fill="#ffffff" stroke="transparent" points="596,-326.7 596,-345.7 658,-345.7 658,-326.7 596,-326.7"/>
<polygon fill="none" stroke="#000000" points="596,-326.7 596,-345.7 658,-345.7 658,-326.7 596,-326.7"/>
<text text-anchor="start" x="639.4053" y="-332.8" font-family="Helvetica,sans-Serif" font-size="11.00" fill="#000000">0 &gt;</text>
<polygon fill="none" stroke="#000000" stroke-width="2" points="505,-325.7 505,-457.7 659,-457.7 659,-325.7 505,-325.7"/>
</a>
</g>
</g>
<!-- users -->
<g id="node2" class="node">
<title>users</title>
<g id="a_node2"><a xlink:href="../../tables/users.html" xlink:title="users" target="_top">
<polygon fill="#ffffff" stroke="transparent" points="8,-164.2 8,-379.2 158,-379.2 158,-164.2 8,-164.2"/>
<polygon fill="#f5f5f5" stroke="transparent" points="8,-355.7 8,-378.7 158,-378.7 158,-355.7 8,-355.7"/>
<polygon fill="none" stroke="#000000" points="8,-355.7 8,-378.7 158,-378.7 158,-355.7 8,-355.7"/>
<text text-anchor="start" x="13" y="-364.3" font-family="Helvetica,sans-Serif" font-weight="bold" font-size="11.00" fill="#000000">users</text>
<text text-anchor="start" x="123.0437" y="-363.8" font-family="Helvetica,sans-Serif" font-size="11.00" fill="#000000">[table]</text>
<polygon fill="none" stroke="#000000" points="8,-333.7 8,-355.7 158,-355.7 158,-333.7 8,-333.7"/>
<image xlink:href="../../images/primaryKeys.png" width="11px" height="12px" preserveAspectRatio="xMinYMin meet" x="13" y="-350.7"/>
<text text-anchor="start" x="28" y="-340.8" font-family="Helvetica,sans-Serif" font-size="11.00" fill="#000000">id</text>
<polygon fill="#ffffff" stroke="transparent" points="8,-311.7 8,-333.7 158,-333.7 158,-311.7 8,-311.7"/>
<polygon fill="none" stroke="#000000" points="8,-311.7 8,-333.7 158,-333.7 158,-311.7 8,-311.7"/>
<text text-anchor="start" x="28" y="-318.8" font-family="Helvetica,sans-Serif" font-size="11.00" fill="#000000">uuid</text>
<polygon fill="none" stroke="#000000" points="8,-289.7 8,-311.7 158,-311.7 158,-289.7 8,-289.7"/>
<image xlink:href="../../images/primaryKeys.png" width="11px" height="12px" preserveAspectRatio="xMinYMin meet" x="13" y="-306.7"/>
<text text-anchor="start" x="28" y="-296.8" font-family="Helvetica,sans-Serif" font-size="11.00" fill="#000000">username</text>
<polygon fill="none" stroke="#000000" points="8,-267.7 8,-289.7 158,-289.7 158,-267.7 8,-267.7"/>
<image xlink:href="../../images/foreignKeys.png" width="11px" height="12px" preserveAspectRatio="xMinYMin meet" x="13" y="-284.7"/>
<text text-anchor="start" x="28" y="-274.8" font-family="Helvetica,sans-Serif" font-size="11.00" fill="#000000">facility_id</text>
<polygon fill="#ffffff" stroke="transparent" points="8,-245.7 8,-267.7 158,-267.7 158,-245.7 8,-245.7"/>
<polygon fill="none" stroke="#000000" points="8,-245.7 8,-267.7 158,-267.7 158,-245.7 8,-245.7"/>
<text text-anchor="start" x="28" y="-252.8" font-family="Helvetica,sans-Serif" font-size="11.00" fill="#000000">google_signin_email</text>
<polygon fill="#ffffff" stroke="transparent" points="8,-223.7 8,-245.7 158,-245.7 158,-223.7 8,-223.7"/>
<polygon fill="none" stroke="#000000" points="8,-223.7 8,-245.7 158,-245.7 158,-223.7 8,-223.7"/>
<text text-anchor="start" x="28" y="-230.8" font-family="Helvetica,sans-Serif" font-size="11.00" fill="#000000">abook_type</text>
<polygon fill="none" stroke="#000000" points="8,-201.7 8,-223.7 158,-223.7 158,-201.7 8,-201.7"/>
<image xlink:href="../../images/foreignKeys.png" width="11px" height="12px" preserveAspectRatio="xMinYMin meet" x="13" y="-218.7"/>
<text text-anchor="start" x="28" y="-208.8" font-family="Helvetica,sans-Serif" font-size="11.00" fill="#000000">billing_facility_id</text>
<polygon fill="none" stroke="#000000" points="8,-182.7 8,-201.7 158,-201.7 158,-182.7 8,-182.7"/>
<text text-anchor="start" x="11" y="-188.8" font-family="Helvetica,sans-Serif" font-size="11.00" fill="#000000">...</text>
<polygon fill="#ffffff" stroke="transparent" points="8,-163.7 8,-182.7 74,-182.7 74,-163.7 8,-163.7"/>
<polygon fill="none" stroke="#000000" points="8,-163.7 8,-182.7 74,-182.7 74,-163.7 8,-163.7"/>
<text text-anchor="start" x="11" y="-169.8" font-family="Helvetica,sans-Serif" font-size="11.00" fill="#000000">&lt; 2</text>
<polygon fill="#ffffff" stroke="transparent" points="74,-163.7 74,-182.7 108,-182.7 108,-163.7 74,-163.7"/>
<polygon fill="none" stroke="#000000" points="74,-163.7 74,-182.7 108,-182.7 108,-163.7 74,-163.7"/>
<text text-anchor="start" x="98.8862" y="-169.8" font-family="Helvetica,sans-Serif" font-size="11.00" fill="#000000"> &#160;</text>
<polygon fill="#ffffff" stroke="transparent" points="108,-163.7 108,-182.7 158,-182.7 158,-163.7 108,-163.7"/>
<polygon fill="none" stroke="#000000" points="108,-163.7 108,-182.7 158,-182.7 158,-163.7 108,-163.7"/>
<text text-anchor="start" x="133.2904" y="-169.8" font-family="Helvetica,sans-Serif" font-size="11.00" fill="#000000">90 &gt;</text>
</a>
</g>
</g>
<!-- care_team&#45;&gt;users -->
<g id="edge1" class="edge">
<title>care_team:w&#45;&gt;users:e</title>
<path fill="none" stroke="#000000" d="M491.5203,-425.7059C463.1797,-440.8773 502.4925,-509.3878 463,-536.7 366.4966,-603.4398 290.2199,-610.4973 199,-536.7 131.1625,-481.8192 245.2572,-344.7 158,-344.7"/>
<polygon fill="#000000" stroke="#000000" points="498.167,-424.3261 506.7317,-426.2249 502.0835,-423.5131 506,-422.7 506,-422.7 506,-422.7 502.0835,-423.5131 505.2683,-419.1751 498.167,-424.3261 498.167,-424.3261"/>
<ellipse fill="none" stroke="#000000" cx="495.0338" cy="-424.9765" rx="3.2" ry="3.2"/>
</g>
<!-- care_team&#45;&gt;users -->
<g id="edge4" class="edge">
<title>care_team:w&#45;&gt;users:e</title>
<path fill="none" stroke="#000000" d="M491.6083,-358.7697C446.9565,-374.2638 515.6321,-472.6127 463,-512.7 439.6645,-530.4735 222.07,-530.8169 199,-512.7 138.553,-465.2309 234.8581,-344.7 158,-344.7"/>
<polygon fill="#000000" stroke="#000000" points="498.0815,-357.8388 506.5125,-360.2633 502.0407,-357.2694 506,-356.7 506,-356.7 506,-356.7 502.0407,-357.2694 505.4875,-353.1367 498.0815,-357.8388 498.0815,-357.8388"/>
<ellipse fill="none" stroke="#000000" cx="494.914" cy="-358.2943" rx="3.2" ry="3.2"/>
</g>
<!-- patient_data -->
<g id="node3" class="node">
<title>patient_data</title>
<g id="a_node3"><a xlink:href="../../tables/patient_data.html" xlink:title="patient_data" target="_top">
<polygon fill="#ffffff" stroke="transparent" points="207,-111.2 207,-502.2 455,-502.2 455,-111.2 207,-111.2"/>
<polygon fill="#f5f5f5" stroke="transparent" points="207,-478.7 207,-501.7 455,-501.7 455,-478.7 207,-478.7"/>
<polygon fill="none" stroke="#000000" points="207,-478.7 207,-501.7 455,-501.7 455,-478.7 207,-478.7"/>
<text text-anchor="start" x="212" y="-487.3" font-family="Helvetica,sans-Serif" font-weight="bold" font-size="11.00" fill="#000000">patient_data</text>
<text text-anchor="start" x="420.0437" y="-486.8" font-family="Helvetica,sans-Serif" font-size="11.00" fill="#000000">[table]</text>
<polygon fill="none" stroke="#000000" points="207,-456.7 207,-478.7 455,-478.7 455,-456.7 207,-456.7"/>
<image xlink:href="../../images/primaryKeys.png" width="11px" height="12px" preserveAspectRatio="xMinYMin meet" x="212" y="-473.7"/>
<text text-anchor="start" x="227" y="-463.8" font-family="Helvetica,sans-Serif" font-size="11.00" fill="#000000">id</text>
<polygon fill="#ffffff" stroke="transparent" points="207,-434.7 207,-456.7 455,-456.7 455,-434.7 207,-434.7"/>
<polygon fill="none" stroke="#000000" points="207,-434.7 207,-456.7 455,-456.7 455,-434.7 207,-434.7"/>
<text text-anchor="start" x="227" y="-441.8" font-family="Helvetica,sans-Serif" font-size="11.00" fill="#000000">uuid</text>
<polygon fill="#ffffff" stroke="transparent" points="207,-412.7 207,-434.7 455,-434.7 455,-412.7 207,-412.7"/>
<polygon fill="none" stroke="#000000" points="207,-412.7 207,-434.7 455,-434.7 455,-412.7 207,-412.7"/>
<text text-anchor="start" x="227" y="-419.8" font-family="Helvetica,sans-Serif" font-size="11.00" fill="#000000">fname</text>
<polygon fill="#ffffff" stroke="transparent" points="207,-390.7 207,-412.7 455,-412.7 455,-390.7 207,-390.7"/>
<polygon fill="none" stroke="#000000" points="207,-390.7 207,-412.7 455,-412.7 455,-390.7 207,-390.7"/>
<text text-anchor="start" x="227" y="-397.8" font-family="Helvetica,sans-Serif" font-size="11.00" fill="#000000">lname</text>
<polygon fill="#ffffff" stroke="transparent" points="207,-368.7 207,-390.7 455,-390.7 455,-368.7 207,-368.7"/>
<polygon fill="none" stroke="#000000" points="207,-368.7 207,-390.7 455,-390.7 455,-368.7 207,-368.7"/>
<text text-anchor="start" x="227" y="-375.8" font-family="Helvetica,sans-Serif" font-size="11.00" fill="#000000">DOB</text>
<polygon fill="none" stroke="#000000" points="207,-346.7 207,-368.7 455,-368.7 455,-346.7 207,-346.7"/>
<image xlink:href="../../images/foreignKeys.png" width="11px" height="12px" preserveAspectRatio="xMinYMin meet" x="212" y="-363.7"/>
<text text-anchor="start" x="227" y="-353.8" font-family="Helvetica,sans-Serif" font-size="11.00" fill="#000000">pharmacy_id</text>
<polygon fill="none" stroke="#000000" points="207,-324.7 207,-346.7 455,-346.7 455,-324.7 207,-324.7"/>
<image xlink:href="../../images/foreignKeys.png" width="11px" height="12px" preserveAspectRatio="xMinYMin meet" x="212" y="-341.7"/>
<text text-anchor="start" x="227" y="-331.8" font-family="Helvetica,sans-Serif" font-size="11.00" fill="#000000">providerID</text>
<polygon fill="none" stroke="#000000" points="207,-302.7 207,-324.7 455,-324.7 455,-302.7 207,-302.7"/>
<image xlink:href="../../images/foreignKeys.png" width="11px" height="12px" preserveAspectRatio="xMinYMin meet" x="212" y="-319.7"/>
<text text-anchor="start" x="227" y="-309.8" font-family="Helvetica,sans-Serif" font-size="11.00" fill="#000000">ref_providerID</text>
<polygon fill="none" stroke="#000000" points="207,-280.7 207,-302.7 455,-302.7 455,-280.7 207,-280.7"/>
<image xlink:href="../../images/foreignKeys.png" width="11px" height="12px" preserveAspectRatio="xMinYMin meet" x="212" y="-297.7"/>
<text text-anchor="start" x="227" y="-287.8" font-family="Helvetica,sans-Serif" font-size="11.00" fill="#000000">interpreter_needed</text>
<polygon fill="none" stroke="#000000" points="207,-258.7 207,-280.7 455,-280.7 455,-258.7 207,-258.7"/>
<image xlink:href="../../images/primaryKeys.png" width="11px" height="12px" preserveAspectRatio="xMinYMin meet" x="212" y="-275.7"/>
<text text-anchor="start" x="227" y="-265.8" font-family="Helvetica,sans-Serif" font-size="11.00" fill="#000000">pid</text>
<polygon fill="none" stroke="#000000" points="207,-236.7 207,-258.7 455,-258.7 455,-236.7 207,-236.7"/>
<image xlink:href="../../images/foreignKeys.png" width="11px" height="12px" preserveAspectRatio="xMinYMin meet" x="212" y="-253.7"/>
<text text-anchor="start" x="227" y="-243.8" font-family="Helvetica,sans-Serif" font-size="11.00" fill="#000000">advance_directive_user_authenticator</text>
<polygon fill="none" stroke="#000000" points="207,-214.7 207,-236.7 455,-236.7 455,-214.7 207,-214.7"/>
<image xlink:href="../../images/foreignKeys.png" width="11px" height="12px" preserveAspectRatio="xMinYMin meet" x="212" y="-231.7"/>
<text text-anchor="start" x="227" y="-221.8" font-family="Helvetica,sans-Serif" font-size="11.00" fill="#000000">created_by</text>
<polygon fill="none" stroke="#000000" points="207,-192.7 207,-214.7 455,-214.7 455,-192.7 207,-192.7"/>
<image xlink:href="../../images/foreignKeys.png" width="11px" height="12px" preserveAspectRatio="xMinYMin meet" x="212" y="-209.7"/>
<text text-anchor="start" x="227" y="-199.8" font-family="Helvetica,sans-Serif" font-size="11.00" fill="#000000">updated_by</text>
<polygon fill="none" stroke="#000000" points="207,-170.7 207,-192.7 455,-192.7 455,-170.7 207,-170.7"/>
<image xlink:href="../../images/foreignKeys.png" width="11px" height="12px" preserveAspectRatio="xMinYMin meet" x="212" y="-187.7"/>
<text text-anchor="start" x="227" y="-177.8" font-family="Helvetica,sans-Serif" font-size="11.00" fill="#000000">tribal_affiliations</text>
<polygon fill="none" stroke="#000000" points="207,-148.7 207,-170.7 455,-170.7 455,-148.7 207,-148.7"/>
<image xlink:href="../../images/foreignKeys.png" width="11px" height="12px" preserveAspectRatio="xMinYMin meet" x="212" y="-165.7"/>
<text text-anchor="start" x="227" y="-155.8" font-family="Helvetica,sans-Serif" font-size="11.00" fill="#000000">sex_identified</text>
<polygon fill="none" stroke="#000000" points="207,-129.7 207,-148.7 455,-148.7 455,-129.7 207,-129.7"/>
<text text-anchor="start" x="210" y="-135.8" font-family="Helvetica,sans-Serif" font-size="11.00" fill="#000000">...</text>
<polygon fill="#ffffff" stroke="transparent" points="207,-110.7 207,-129.7 322,-129.7 322,-110.7 207,-110.7"/>
<polygon fill="none" stroke="#000000" points="207,-110.7 207,-129.7 322,-129.7 322,-110.7 207,-110.7"/>
<text text-anchor="start" x="210" y="-116.8" font-family="Helvetica,sans-Serif" font-size="11.00" fill="#000000">&lt; 9</text>
<polygon fill="#ffffff" stroke="transparent" points="322,-110.7 322,-129.7 381,-129.7 381,-110.7 322,-110.7"/>
<polygon fill="none" stroke="#000000" points="322,-110.7 322,-129.7 381,-129.7 381,-110.7 322,-110.7"/>
<text text-anchor="start" x="371.8862" y="-116.8" font-family="Helvetica,sans-Serif" font-size="11.00" fill="#000000"> &#160;</text>
<polygon fill="#ffffff" stroke="transparent" points="381,-110.7 381,-129.7 455,-129.7 455,-110.7 381,-110.7"/>
<polygon fill="none" stroke="#000000" points="381,-110.7 381,-129.7 455,-129.7 455,-110.7 381,-110.7"/>
<text text-anchor="start" x="430.2904" y="-116.8" font-family="Helvetica,sans-Serif" font-size="11.00" fill="#000000">95 &gt;</text>
</a>
</g>
</g>
<!-- care_team&#45;&gt;patient_data -->
<g id="edge2" class="edge">
<title>care_team:w&#45;&gt;patient_data:e</title>
<path fill="none" stroke="#000000" d="M491.8004,-397.4618C456.1891,-377.2889 511.6214,-269.7 455,-269.7"/>
<polygon fill="#000000" stroke="#000000" points="498.2002,-398.9212 505.1995,-404.2099 502.1001,-399.8106 506,-400.7 506,-400.7 506,-400.7 502.1001,-399.8106 506.8005,-397.1901 498.2002,-398.9212 498.2002,-398.9212"/>
<ellipse fill="none" stroke="#000000" cx="495.0803" cy="-398.2097" rx="3.2" ry="3.2"/>
</g>
<!-- list_options -->
<g id="node4" class="node">
<title>list_options</title>
<g id="a_node4"><a xlink:href="../../tables/list_options.html" xlink:title="list_options" target="_top">
<polygon fill="#ffffff" stroke="transparent" points="25,-38.2 25,-143.2 141,-143.2 141,-38.2 25,-38.2"/>
<polygon fill="#f5f5f5" stroke="transparent" points="25,-119.7 25,-142.7 141,-142.7 141,-119.7 25,-119.7"/>
<polygon fill="none" stroke="#000000" points="25,-119.7 25,-142.7 141,-142.7 141,-119.7 25,-119.7"/>
<text text-anchor="start" x="30" y="-128.3" font-family="Helvetica,sans-Serif" font-weight="bold" font-size="11.00" fill="#000000">list_options</text>
<text text-anchor="start" x="106.0437" y="-127.8" font-family="Helvetica,sans-Serif" font-size="11.00" fill="#000000">[table]</text>
<polygon fill="none" stroke="#000000" points="25,-97.7 25,-119.7 141,-119.7 141,-97.7 25,-97.7"/>
<image xlink:href="../../images/primaryKeys.png" width="11px" height="12px" preserveAspectRatio="xMinYMin meet" x="30" y="-114.7"/>
<text text-anchor="start" x="45" y="-104.8" font-family="Helvetica,sans-Serif" font-size="11.00" fill="#000000">list_id</text>
<polygon fill="none" stroke="#000000" points="25,-75.7 25,-97.7 141,-97.7 141,-75.7 25,-75.7"/>
<image xlink:href="../../images/primaryKeys.png" width="11px" height="12px" preserveAspectRatio="xMinYMin meet" x="30" y="-92.7"/>
<text text-anchor="start" x="45" y="-82.8" font-family="Helvetica,sans-Serif" font-size="11.00" fill="#000000">option_id</text>
<polygon fill="none" stroke="#000000" points="25,-56.7 25,-75.7 141,-75.7 141,-56.7 25,-56.7"/>
<text text-anchor="start" x="28" y="-62.8" font-family="Helvetica,sans-Serif" font-size="11.00" fill="#000000">...</text>
<polygon fill="#ffffff" stroke="transparent" points="25,-37.7 25,-56.7 69,-56.7 69,-37.7 25,-37.7"/>
<polygon fill="none" stroke="#000000" points="25,-37.7 25,-56.7 69,-56.7 69,-37.7 25,-37.7"/>
<text text-anchor="start" x="28" y="-43.8" font-family="Helvetica,sans-Serif" font-size="11.00" fill="#000000"> &#160;</text>
<polygon fill="#ffffff" stroke="transparent" points="69,-37.7 69,-56.7 97,-56.7 97,-37.7 69,-37.7"/>
<polygon fill="none" stroke="#000000" points="69,-37.7 69,-56.7 97,-56.7 97,-37.7 69,-37.7"/>
<text text-anchor="start" x="87.8862" y="-43.8" font-family="Helvetica,sans-Serif" font-size="11.00" fill="#000000"> &#160;</text>
<polygon fill="#ffffff" stroke="transparent" points="97,-37.7 97,-56.7 141,-56.7 141,-37.7 97,-37.7"/>
<polygon fill="none" stroke="#000000" points="97,-37.7 97,-56.7 141,-56.7 141,-37.7 97,-37.7"/>
<text text-anchor="start" x="116.2904" y="-43.8" font-family="Helvetica,sans-Serif" font-size="11.00" fill="#000000">98 &gt;</text>
</a>
</g>
</g>
<!-- care_team&#45;&gt;list_options -->
<g id="edge3" class="edge">
<title>care_team:w&#45;&gt;list_options:e</title>
<path fill="none" stroke="#000000" d="M492.0899,-373.2905C454.4518,-337.8116 505.3826,-138.6589 463,-100.7 356.2941,-5.1314 284.2463,-86.7 141,-86.7"/>
<polygon fill="#000000" stroke="#000000" points="498.544,-375.8004 504.6952,-382.0552 502.272,-377.2502 506,-378.7 506,-378.7 506,-378.7 502.272,-377.2502 507.3048,-375.3448 498.544,-375.8004 498.544,-375.8004"/>
<ellipse fill="none" stroke="#000000" cx="495.5616" cy="-374.6405" rx="3.2" ry="3.2"/>
</g>
<!-- patient_data&#45;&gt;users -->
<g id="edge5" class="edge">
<title>patient_data:w&#45;&gt;users:e</title>
<path fill="none" stroke="#000000" d="M193.0083,-251.868C169.1018,-270.4344 200.262,-344.7 158,-344.7"/>
<polygon fill="#000000" stroke="#000000" points="199.3329,-249.984 208.0278,-251.1502 203.1665,-248.842 207,-247.7 207,-247.7 207,-247.7 203.1665,-248.842 205.9722,-244.2498 199.3329,-249.984 199.3329,-249.984"/>
<ellipse fill="none" stroke="#000000" cx="196.2661" cy="-250.8976" rx="3.2" ry="3.2"/>
</g>
<!-- patient_data&#45;&gt;users -->
<g id="edge6" class="edge">
<title>patient_data:w&#45;&gt;users:e</title>
<path fill="none" stroke="#000000" d="M192.7058,-229.3919C162.2333,-249.4778 209.1646,-344.7 158,-344.7"/>
<polygon fill="#000000" stroke="#000000" points="199.2542,-227.7006 207.9003,-229.1856 203.1271,-226.7003 207,-225.7 207,-225.7 207,-225.7 203.1271,-226.7003 206.0997,-222.2144 199.2542,-227.7006 199.2542,-227.7006"/>
<ellipse fill="none" stroke="#000000" cx="196.1559" cy="-228.5009" rx="3.2" ry="3.2"/>
</g>
<!-- patient_data&#45;&gt;users -->
<g id="edge8" class="edge">
<title>patient_data:w&#45;&gt;users:e</title>
<path fill="none" stroke="#000000" d="M192.3909,-337.2677C181.1231,-339.8462 174.2606,-344.7 158,-344.7"/>
<polygon fill="#000000" stroke="#000000" points="199.0457,-336.5536 207.3841,-339.2795 203.0228,-336.1268 207,-335.7 207,-335.7 207,-335.7 203.0228,-336.1268 206.6159,-332.1205 199.0457,-336.5536 199.0457,-336.5536"/>
<ellipse fill="none" stroke="#000000" cx="195.8639" cy="-336.8951" rx="3.2" ry="3.2"/>
</g>
<!-- patient_data&#45;&gt;users -->
<g id="edge9" class="edge">
<title>patient_data:w&#45;&gt;users:e</title>
<path fill="none" stroke="#000000" d="M192.8168,-318.0104C180.8655,-326.5284 177.7302,-344.7 158,-344.7"/>
<polygon fill="#000000" stroke="#000000" points="199.3457,-316.0263 208.0468,-317.1444 203.1728,-314.8631 207,-313.7 207,-313.7 207,-313.7 203.1728,-314.8631 205.9532,-310.2556 199.3457,-316.0263 199.3457,-316.0263"/>
<ellipse fill="none" stroke="#000000" cx="196.2839" cy="-316.9568" rx="3.2" ry="3.2"/>
</g>
<!-- patient_data&#45;&gt;users -->
<g id="edge12" class="edge">
<title>patient_data:w&#45;&gt;users:e</title>
<path fill="none" stroke="#000000" d="M192.534,-206.9099C154.4834,-227.8978 218.3824,-344.7 158,-344.7"/>
<polygon fill="#000000" stroke="#000000" points="199.19,-205.433 207.7799,-207.2145 203.095,-204.5665 207,-203.7 207,-203.7 207,-203.7 203.095,-204.5665 206.2201,-200.1855 199.19,-205.433 199.19,-205.433"/>
<ellipse fill="none" stroke="#000000" cx="196.0659" cy="-206.1262" rx="3.2" ry="3.2"/>
</g>
<!-- patient_data&#45;&gt;list_options -->
<g id="edge7" class="edge">
<title>patient_data:w&#45;&gt;list_options:e</title>
<path fill="none" stroke="#000000" d="M192.3636,-289.671C125.2233,-268.3804 231.1083,-86.7 141,-86.7"/>
<polygon fill="#000000" stroke="#000000" points="199.0758,-290.6015 206.5057,-295.2659 203.0379,-291.1507 207,-291.7 207,-291.7 207,-291.7 203.0379,-291.1507 207.4943,-288.1341 199.0758,-290.6015 199.0758,-290.6015"/>
<ellipse fill="none" stroke="#000000" cx="195.9061" cy="-290.1621" rx="3.2" ry="3.2"/>
</g>
<!-- patient_data&#45;&gt;list_options -->
<g id="edge10" class="edge">
<title>patient_data:w&#45;&gt;list_options:e</title>
<path fill="none" stroke="#000000" d="M192.7183,-156.1791C167.8158,-141.597 178.9298,-86.7 141,-86.7"/>
<polygon fill="#000000" stroke="#000000" points="199.2326,-157.785 206.1383,-163.1953 203.1163,-158.7425 207,-159.7 207,-159.7 207,-159.7 203.1163,-158.7425 207.8617,-156.2047 199.2326,-157.785 199.2326,-157.785"/>
<ellipse fill="none" stroke="#000000" cx="196.1256" cy="-157.019" rx="3.2" ry="3.2"/>
</g>
<!-- patient_data&#45;&gt;list_options -->
<g id="edge11" class="edge">
<title>patient_data:w&#45;&gt;list_options:e</title>
<path fill="none" stroke="#000000" d="M192.6684,-178.3189C162.7988,-161.3957 186.5877,-86.7 141,-86.7"/>
<polygon fill="#000000" stroke="#000000" points="199.2137,-179.863 206.1734,-185.2038 203.1069,-180.7815 207,-181.7 207,-181.7 207,-181.7 203.1069,-180.7815 207.8266,-178.1962 199.2137,-179.863 199.2137,-179.863"/>
<ellipse fill="none" stroke="#000000" cx="196.0992" cy="-179.1282" rx="3.2" ry="3.2"/>
</g>
</g>
</svg>
