<?xml version="1.0" encoding="UTF-8" standalone="no"?>
<!DOCTYPE svg PUBLIC "-//W3C//DTD SVG 1.1//EN"
 "http://www.w3.org/Graphics/SVG/1.1/DTD/svg11.dtd">
<!-- Generated by graphviz version 2.40.1 (20161225.0304)
 -->
<!-- Title: oneDegreeRelationshipsDiagram Pages: 1 -->
<svg width="237pt" height="360pt"
 viewBox="0.00 0.00 237.00 360.20" xmlns="http://www.w3.org/2000/svg" xmlns:xlink="http://www.w3.org/1999/xlink">
<g id="graph0" class="graph" transform="scale(1 1) rotate(0) translate(4 356.2)">
<title>oneDegreeRelationshipsDiagram</title>
<polygon fill="#ffffff" stroke="transparent" points="-4,4 -4,-356.2 233,-356.2 233,4 -4,4"/>
<text text-anchor="middle" x="72.4936" y="-7.3" font-family="Helvetica,sans-Serif" font-size="11.00" fill="#000000">Generated by SchemaSpy</text>
<!-- form_eye_mag_prefs -->
<g id="node1" class="node">
<title>form_eye_mag_prefs</title>
<g id="a_node1"><a xlink:href="../../tables/form_eye_mag_prefs.html" xlink:title="form_eye_mag_prefs" target="_top">
<polygon fill="#ffffff" stroke="transparent" points="8,-38.2 8,-348.2 221,-348.2 221,-38.2 8,-38.2"/>
<polygon fill="#f5f5f5" stroke="transparent" points="10.5,-323.2 10.5,-346.2 219.5,-346.2 219.5,-323.2 10.5,-323.2"/>
<polygon fill="none" stroke="#000000" points="10.5,-323.2 10.5,-346.2 219.5,-346.2 219.5,-323.2 10.5,-323.2"/>
<text text-anchor="start" x="15.5" y="-331.8" font-family="Helvetica,sans-Serif" font-weight="bold" font-size="11.00" fill="#000000">form_eye_mag_prefs</text>
<text text-anchor="start" x="184.5437" y="-331.3" font-family="Helvetica,sans-Serif" font-size="11.00" fill="#000000">[table]</text>
<polygon fill="#ffffff" stroke="transparent" points="10.5,-301.2 10.5,-323.2 152.5,-323.2 152.5,-301.2 10.5,-301.2"/>
<polygon fill="none" stroke="#000000" points="10.5,-301.2 10.5,-323.2 152.5,-323.2 152.5,-301.2 10.5,-301.2"/>
<text text-anchor="start" x="30.5" y="-308.3" font-family="Helvetica,sans-Serif" font-size="11.00" fill="#000000">PEZONE</text>
<polygon fill="none" stroke="#000000" points="152.5,-301.2 152.5,-323.2 219.5,-323.2 219.5,-301.2 152.5,-301.2"/>
<text text-anchor="start" x="155.5" y="-308.9" font-family="Helvetica,sans-Serif" font-size="11.00" fill="#000000">varchar[25]</text>
<polygon fill="#ffffff" stroke="transparent" points="10.5,-279.2 10.5,-301.2 152.5,-301.2 152.5,-279.2 10.5,-279.2"/>
<polygon fill="none" stroke="#000000" points="10.5,-279.2 10.5,-301.2 152.5,-301.2 152.5,-279.2 10.5,-279.2"/>
<text text-anchor="start" x="30.5" y="-286.3" font-family="Helvetica,sans-Serif" font-size="11.00" fill="#000000">LOCATION</text>
<polygon fill="none" stroke="#000000" points="152.5,-279.2 152.5,-301.2 219.5,-301.2 219.5,-279.2 152.5,-279.2"/>
<text text-anchor="start" x="155.5" y="-286.9" font-family="Helvetica,sans-Serif" font-size="11.00" fill="#000000">varchar[25]</text>
<polygon fill="none" stroke="#000000" points="10.5,-257.2 10.5,-279.2 152.5,-279.2 152.5,-257.2 10.5,-257.2"/>
<text text-anchor="start" x="30.5" y="-264.3" font-family="Helvetica,sans-Serif" font-size="11.00" fill="#000000">LOCATION_text</text>
<polygon fill="none" stroke="#000000" points="152.5,-257.2 152.5,-279.2 219.5,-279.2 219.5,-257.2 152.5,-257.2"/>
<text text-anchor="start" x="155.5" y="-264.9" font-family="Helvetica,sans-Serif" font-size="11.00" fill="#000000">varchar[25]</text>
<polygon fill="#ffffff" stroke="transparent" points="10.5,-235.2 10.5,-257.2 152.5,-257.2 152.5,-235.2 10.5,-235.2"/>
<polygon fill="none" stroke="#000000" points="10.5,-235.2 10.5,-257.2 152.5,-257.2 152.5,-235.2 10.5,-235.2"/>
<text text-anchor="start" x="30.5" y="-242.3" font-family="Helvetica,sans-Serif" font-size="11.00" fill="#000000">id</text>
<polygon fill="none" stroke="#000000" points="152.5,-235.2 152.5,-257.2 219.5,-257.2 219.5,-235.2 152.5,-235.2"/>
<text text-anchor="start" x="155.5" y="-242.9" font-family="Helvetica,sans-Serif" font-size="11.00" fill="#000000">bigint[19]</text>
<polygon fill="#ffffff" stroke="transparent" points="10.5,-213.2 10.5,-235.2 152.5,-235.2 152.5,-213.2 10.5,-213.2"/>
<polygon fill="none" stroke="#000000" points="10.5,-213.2 10.5,-235.2 152.5,-235.2 152.5,-213.2 10.5,-213.2"/>
<text text-anchor="start" x="30.5" y="-220.3" font-family="Helvetica,sans-Serif" font-size="11.00" fill="#000000">selection</text>
<polygon fill="none" stroke="#000000" points="152.5,-213.2 152.5,-235.2 219.5,-235.2 219.5,-213.2 152.5,-213.2"/>
<text text-anchor="start" x="155.4365" y="-220.9" font-family="Helvetica,sans-Serif" font-size="11.00" fill="#000000">varchar[255]</text>
<polygon fill="none" stroke="#000000" points="10.5,-191.2 10.5,-213.2 152.5,-213.2 152.5,-191.2 10.5,-191.2"/>
<text text-anchor="start" x="30.5" y="-198.3" font-family="Helvetica,sans-Serif" font-size="11.00" fill="#000000">ZONE_ORDER</text>
<polygon fill="none" stroke="#000000" points="152.5,-191.2 152.5,-213.2 219.5,-213.2 219.5,-191.2 152.5,-191.2"/>
<text text-anchor="start" x="155.5" y="-198.9" font-family="Helvetica,sans-Serif" font-size="11.00" fill="#000000">int[10]</text>
<polygon fill="none" stroke="#000000" points="10.5,-169.2 10.5,-191.2 152.5,-191.2 152.5,-169.2 10.5,-169.2"/>
<text text-anchor="start" x="30.5" y="-176.3" font-family="Helvetica,sans-Serif" font-size="11.00" fill="#000000">GOVALUE</text>
<polygon fill="none" stroke="#000000" points="152.5,-169.2 152.5,-191.2 219.5,-191.2 219.5,-169.2 152.5,-169.2"/>
<text text-anchor="start" x="155.5" y="-176.9" font-family="Helvetica,sans-Serif" font-size="11.00" fill="#000000">varchar[10]</text>
<polygon fill="none" stroke="#000000" points="10.5,-147.2 10.5,-169.2 152.5,-169.2 152.5,-147.2 10.5,-147.2"/>
<text text-anchor="start" x="30.5" y="-154.3" font-family="Helvetica,sans-Serif" font-size="11.00" fill="#000000">ordering</text>
<polygon fill="none" stroke="#000000" points="152.5,-147.2 152.5,-169.2 219.5,-169.2 219.5,-147.2 152.5,-147.2"/>
<text text-anchor="start" x="155.5" y="-154.9" font-family="Helvetica,sans-Serif" font-size="11.00" fill="#000000">smallint[5]</text>
<polygon fill="none" stroke="#000000" points="10.5,-125.2 10.5,-147.2 152.5,-147.2 152.5,-125.2 10.5,-125.2"/>
<text text-anchor="start" x="30.5" y="-132.3" font-family="Helvetica,sans-Serif" font-size="11.00" fill="#000000">FILL_ACTION</text>
<polygon fill="none" stroke="#000000" points="152.5,-125.2 152.5,-147.2 219.5,-147.2 219.5,-125.2 152.5,-125.2"/>
<text text-anchor="start" x="155.5" y="-132.9" font-family="Helvetica,sans-Serif" font-size="11.00" fill="#000000">varchar[10]</text>
<polygon fill="none" stroke="#000000" points="10.5,-103.2 10.5,-125.2 152.5,-125.2 152.5,-103.2 10.5,-103.2"/>
<text text-anchor="start" x="30.5" y="-110.3" font-family="Helvetica,sans-Serif" font-size="11.00" fill="#000000">GORIGHT</text>
<polygon fill="none" stroke="#000000" points="152.5,-103.2 152.5,-125.2 219.5,-125.2 219.5,-103.2 152.5,-103.2"/>
<text text-anchor="start" x="155.5" y="-110.9" font-family="Helvetica,sans-Serif" font-size="11.00" fill="#000000">varchar[50]</text>
<polygon fill="none" stroke="#000000" points="10.5,-81.2 10.5,-103.2 152.5,-103.2 152.5,-81.2 10.5,-81.2"/>
<text text-anchor="start" x="30.5" y="-88.3" font-family="Helvetica,sans-Serif" font-size="11.00" fill="#000000">GOLEFT</text>
<polygon fill="none" stroke="#000000" points="152.5,-81.2 152.5,-103.2 219.5,-103.2 219.5,-81.2 152.5,-81.2"/>
<text text-anchor="start" x="155.5" y="-88.9" font-family="Helvetica,sans-Serif" font-size="11.00" fill="#000000">varchar[50]</text>
<polygon fill="none" stroke="#000000" points="10.5,-59.2 10.5,-81.2 152.5,-81.2 152.5,-59.2 10.5,-59.2"/>
<text text-anchor="start" x="30.5" y="-66.3" font-family="Helvetica,sans-Serif" font-size="11.00" fill="#000000">UNSPEC</text>
<polygon fill="none" stroke="#000000" points="152.5,-59.2 152.5,-81.2 219.5,-81.2 219.5,-59.2 152.5,-59.2"/>
<text text-anchor="start" x="155.5" y="-66.9" font-family="Helvetica,sans-Serif" font-size="11.00" fill="#000000">varchar[50]</text>
<polygon fill="#ffffff" stroke="transparent" points="10.5,-40.2 10.5,-59.2 85.5,-59.2 85.5,-40.2 10.5,-40.2"/>
<polygon fill="none" stroke="#000000" points="10.5,-40.2 10.5,-59.2 85.5,-59.2 85.5,-40.2 10.5,-40.2"/>
<text text-anchor="start" x="13.5" y="-46.3" font-family="Helvetica,sans-Serif" font-size="11.00" fill="#000000">&lt; 0</text>
<polygon fill="#ffffff" stroke="transparent" points="85.5,-40.2 85.5,-59.2 152.5,-59.2 152.5,-40.2 85.5,-40.2"/>
<polygon fill="none" stroke="#000000" points="85.5,-40.2 85.5,-59.2 152.5,-59.2 152.5,-40.2 85.5,-40.2"/>
<text text-anchor="start" x="143.3862" y="-46.3" font-family="Helvetica,sans-Serif" font-size="11.00" fill="#000000"> &#160;</text>
<polygon fill="#ffffff" stroke="transparent" points="152.5,-40.2 152.5,-59.2 219.5,-59.2 219.5,-40.2 152.5,-40.2"/>
<polygon fill="none" stroke="#000000" points="152.5,-40.2 152.5,-59.2 219.5,-59.2 219.5,-40.2 152.5,-40.2"/>
<text text-anchor="start" x="200.9053" y="-46.3" font-family="Helvetica,sans-Serif" font-size="11.00" fill="#000000">0 &gt;</text>
<polygon fill="none" stroke="#000000" stroke-width="2" points="9,-39.2 9,-347.2 220,-347.2 220,-39.2 9,-39.2"/>
</a>
</g>
</g>
</g>
</svg>
