<?xml version="1.0" encoding="UTF-8" standalone="no"?>
<!DOCTYPE svg PUBLIC "-//W3C//DTD SVG 1.1//EN"
 "http://www.w3.org/Graphics/SVG/1.1/DTD/svg11.dtd">
<!-- Generated by graphviz version 2.40.1 (20161225.0304)
 -->
<!-- Title: oneDegreeRelationshipsDiagram Pages: 1 -->
<svg width="963pt" height="441pt"
 viewBox="0.00 0.00 963.00 441.20" xmlns="http://www.w3.org/2000/svg" xmlns:xlink="http://www.w3.org/1999/xlink">
<g id="graph0" class="graph" transform="scale(1 1) rotate(0) translate(4 437.2)">
<title>oneDegreeRelationshipsDiagram</title>
<polygon fill="#ffffff" stroke="transparent" points="-4,4 -4,-437.2 959,-437.2 959,4 -4,4"/>
<text text-anchor="middle" x="72.4936" y="-7.3" font-family="Helvetica,sans-Serif" font-size="11.00" fill="#000000">Generated by SchemaSpy</text>
<!-- forms -->
<g id="node1" class="node">
<title>forms</title>
<g id="a_node1"><a xlink:href="../../tables/forms.html" xlink:title="forms" target="_top">
<polygon fill="#ffffff" stroke="transparent" points="305,-130.2 305,-389.2 429,-389.2 429,-130.2 305,-130.2"/>
<polygon fill="#f5f5f5" stroke="transparent" points="305,-365.7 305,-388.7 429,-388.7 429,-365.7 305,-365.7"/>
<polygon fill="none" stroke="#000000" points="305,-365.7 305,-388.7 429,-388.7 429,-365.7 305,-365.7"/>
<text text-anchor="start" x="310" y="-374.3" font-family="Helvetica,sans-Serif" font-weight="bold" font-size="11.00" fill="#000000">forms</text>
<text text-anchor="start" x="394.0437" y="-373.8" font-family="Helvetica,sans-Serif" font-size="11.00" fill="#000000">[table]</text>
<polygon fill="none" stroke="#000000" points="305,-343.7 305,-365.7 429,-365.7 429,-343.7 305,-343.7"/>
<image xlink:href="../../images/primaryKeys.png" width="11px" height="12px" preserveAspectRatio="xMinYMin meet" x="310" y="-360.7"/>
<text text-anchor="start" x="325" y="-350.8" font-family="Helvetica,sans-Serif" font-size="11.00" fill="#000000">id</text>
<polygon fill="#ffffff" stroke="transparent" points="305,-321.7 305,-343.7 429,-343.7 429,-321.7 305,-321.7"/>
<polygon fill="none" stroke="#000000" points="305,-321.7 305,-343.7 429,-343.7 429,-321.7 305,-321.7"/>
<text text-anchor="start" x="325" y="-328.8" font-family="Helvetica,sans-Serif" font-size="11.00" fill="#000000">encounter</text>
<polygon fill="none" stroke="#000000" points="305,-299.7 305,-321.7 429,-321.7 429,-299.7 305,-299.7"/>
<image xlink:href="../../images/primaryKeys.png" width="11px" height="12px" preserveAspectRatio="xMinYMin meet" x="310" y="-316.7"/>
<text text-anchor="start" x="325" y="-306.8" font-family="Helvetica,sans-Serif" font-size="11.00" fill="#000000">form_id</text>
<polygon fill="#ffffff" stroke="transparent" points="305,-277.7 305,-299.7 429,-299.7 429,-277.7 305,-277.7"/>
<polygon fill="none" stroke="#000000" points="305,-277.7 305,-299.7 429,-299.7 429,-277.7 305,-277.7"/>
<image xlink:href="../../images/foreignKeys.png" width="11px" height="12px" preserveAspectRatio="xMinYMin meet" x="310" y="-294.7"/>
<text text-anchor="start" x="325" y="-284.8" font-family="Helvetica,sans-Serif" font-size="11.00" fill="#000000">pid</text>
<polygon fill="none" stroke="#000000" points="305,-255.7 305,-277.7 429,-277.7 429,-255.7 305,-255.7"/>
<image xlink:href="../../images/foreignKeys.png" width="11px" height="12px" preserveAspectRatio="xMinYMin meet" x="310" y="-272.7"/>
<text text-anchor="start" x="325" y="-262.8" font-family="Helvetica,sans-Serif" font-size="11.00" fill="#000000">user</text>
<polygon fill="none" stroke="#000000" points="305,-233.7 305,-255.7 429,-255.7 429,-233.7 305,-233.7"/>
<image xlink:href="../../images/foreignKeys.png" width="11px" height="12px" preserveAspectRatio="xMinYMin meet" x="310" y="-250.7"/>
<text text-anchor="start" x="325" y="-240.8" font-family="Helvetica,sans-Serif" font-size="11.00" fill="#000000">groupname</text>
<polygon fill="none" stroke="#000000" points="305,-211.7 305,-233.7 429,-233.7 429,-211.7 305,-211.7"/>
<image xlink:href="../../images/foreignKeys.png" width="11px" height="12px" preserveAspectRatio="xMinYMin meet" x="310" y="-228.7"/>
<text text-anchor="start" x="325" y="-218.8" font-family="Helvetica,sans-Serif" font-size="11.00" fill="#000000">therapy_group_id</text>
<polygon fill="none" stroke="#000000" points="305,-189.7 305,-211.7 429,-211.7 429,-189.7 305,-189.7"/>
<image xlink:href="../../images/foreignKeys.png" width="11px" height="12px" preserveAspectRatio="xMinYMin meet" x="310" y="-206.7"/>
<text text-anchor="start" x="325" y="-196.8" font-family="Helvetica,sans-Serif" font-size="11.00" fill="#000000">issue_id</text>
<polygon fill="none" stroke="#000000" points="305,-167.7 305,-189.7 429,-189.7 429,-167.7 305,-167.7"/>
<image xlink:href="../../images/foreignKeys.png" width="11px" height="12px" preserveAspectRatio="xMinYMin meet" x="310" y="-184.7"/>
<text text-anchor="start" x="325" y="-174.8" font-family="Helvetica,sans-Serif" font-size="11.00" fill="#000000">provider_id</text>
<polygon fill="none" stroke="#000000" points="305,-148.7 305,-167.7 429,-167.7 429,-148.7 305,-148.7"/>
<text text-anchor="start" x="308" y="-154.8" font-family="Helvetica,sans-Serif" font-size="11.00" fill="#000000">...</text>
<polygon fill="#ffffff" stroke="transparent" points="305,-129.7 305,-148.7 358,-148.7 358,-129.7 305,-129.7"/>
<polygon fill="none" stroke="#000000" points="305,-129.7 305,-148.7 358,-148.7 358,-129.7 305,-129.7"/>
<text text-anchor="start" x="308" y="-135.8" font-family="Helvetica,sans-Serif" font-size="11.00" fill="#000000">&lt; 6</text>
<polygon fill="#ffffff" stroke="transparent" points="358,-129.7 358,-148.7 386,-148.7 386,-129.7 358,-129.7"/>
<polygon fill="none" stroke="#000000" points="358,-129.7 358,-148.7 386,-148.7 386,-129.7 358,-129.7"/>
<text text-anchor="start" x="376.8862" y="-135.8" font-family="Helvetica,sans-Serif" font-size="11.00" fill="#000000"> &#160;</text>
<polygon fill="#ffffff" stroke="transparent" points="386,-129.7 386,-148.7 429,-148.7 429,-129.7 386,-129.7"/>
<polygon fill="none" stroke="#000000" points="386,-129.7 386,-148.7 429,-148.7 429,-129.7 386,-129.7"/>
<text text-anchor="start" x="404.2904" y="-135.8" font-family="Helvetica,sans-Serif" font-size="11.00" fill="#000000">14 &gt;</text>
</a>
</g>
</g>
<!-- patient_data -->
<g id="node2" class="node">
<title>patient_data</title>
<g id="a_node2"><a xlink:href="../../tables/patient_data.html" xlink:title="patient_data" target="_top">
<polygon fill="#ffffff" stroke="transparent" points="8,-38.2 8,-429.2 256,-429.2 256,-38.2 8,-38.2"/>
<polygon fill="#f5f5f5" stroke="transparent" points="8,-405.7 8,-428.7 256,-428.7 256,-405.7 8,-405.7"/>
<polygon fill="none" stroke="#000000" points="8,-405.7 8,-428.7 256,-428.7 256,-405.7 8,-405.7"/>
<text text-anchor="start" x="13" y="-414.3" font-family="Helvetica,sans-Serif" font-weight="bold" font-size="11.00" fill="#000000">patient_data</text>
<text text-anchor="start" x="221.0437" y="-413.8" font-family="Helvetica,sans-Serif" font-size="11.00" fill="#000000">[table]</text>
<polygon fill="none" stroke="#000000" points="8,-383.7 8,-405.7 256,-405.7 256,-383.7 8,-383.7"/>
<image xlink:href="../../images/primaryKeys.png" width="11px" height="12px" preserveAspectRatio="xMinYMin meet" x="13" y="-400.7"/>
<text text-anchor="start" x="28" y="-390.8" font-family="Helvetica,sans-Serif" font-size="11.00" fill="#000000">id</text>
<polygon fill="#ffffff" stroke="transparent" points="8,-361.7 8,-383.7 256,-383.7 256,-361.7 8,-361.7"/>
<polygon fill="none" stroke="#000000" points="8,-361.7 8,-383.7 256,-383.7 256,-361.7 8,-361.7"/>
<text text-anchor="start" x="28" y="-368.8" font-family="Helvetica,sans-Serif" font-size="11.00" fill="#000000">uuid</text>
<polygon fill="#ffffff" stroke="transparent" points="8,-339.7 8,-361.7 256,-361.7 256,-339.7 8,-339.7"/>
<polygon fill="none" stroke="#000000" points="8,-339.7 8,-361.7 256,-361.7 256,-339.7 8,-339.7"/>
<text text-anchor="start" x="28" y="-346.8" font-family="Helvetica,sans-Serif" font-size="11.00" fill="#000000">fname</text>
<polygon fill="#ffffff" stroke="transparent" points="8,-317.7 8,-339.7 256,-339.7 256,-317.7 8,-317.7"/>
<polygon fill="none" stroke="#000000" points="8,-317.7 8,-339.7 256,-339.7 256,-317.7 8,-317.7"/>
<text text-anchor="start" x="28" y="-324.8" font-family="Helvetica,sans-Serif" font-size="11.00" fill="#000000">lname</text>
<polygon fill="#ffffff" stroke="transparent" points="8,-295.7 8,-317.7 256,-317.7 256,-295.7 8,-295.7"/>
<polygon fill="none" stroke="#000000" points="8,-295.7 8,-317.7 256,-317.7 256,-295.7 8,-295.7"/>
<text text-anchor="start" x="28" y="-302.8" font-family="Helvetica,sans-Serif" font-size="11.00" fill="#000000">DOB</text>
<polygon fill="none" stroke="#000000" points="8,-273.7 8,-295.7 256,-295.7 256,-273.7 8,-273.7"/>
<image xlink:href="../../images/foreignKeys.png" width="11px" height="12px" preserveAspectRatio="xMinYMin meet" x="13" y="-290.7"/>
<text text-anchor="start" x="28" y="-280.8" font-family="Helvetica,sans-Serif" font-size="11.00" fill="#000000">pharmacy_id</text>
<polygon fill="none" stroke="#000000" points="8,-251.7 8,-273.7 256,-273.7 256,-251.7 8,-251.7"/>
<image xlink:href="../../images/foreignKeys.png" width="11px" height="12px" preserveAspectRatio="xMinYMin meet" x="13" y="-268.7"/>
<text text-anchor="start" x="28" y="-258.8" font-family="Helvetica,sans-Serif" font-size="11.00" fill="#000000">providerID</text>
<polygon fill="none" stroke="#000000" points="8,-229.7 8,-251.7 256,-251.7 256,-229.7 8,-229.7"/>
<image xlink:href="../../images/foreignKeys.png" width="11px" height="12px" preserveAspectRatio="xMinYMin meet" x="13" y="-246.7"/>
<text text-anchor="start" x="28" y="-236.8" font-family="Helvetica,sans-Serif" font-size="11.00" fill="#000000">ref_providerID</text>
<polygon fill="none" stroke="#000000" points="8,-207.7 8,-229.7 256,-229.7 256,-207.7 8,-207.7"/>
<image xlink:href="../../images/foreignKeys.png" width="11px" height="12px" preserveAspectRatio="xMinYMin meet" x="13" y="-224.7"/>
<text text-anchor="start" x="28" y="-214.8" font-family="Helvetica,sans-Serif" font-size="11.00" fill="#000000">interpreter_needed</text>
<polygon fill="none" stroke="#000000" points="8,-185.7 8,-207.7 256,-207.7 256,-185.7 8,-185.7"/>
<image xlink:href="../../images/primaryKeys.png" width="11px" height="12px" preserveAspectRatio="xMinYMin meet" x="13" y="-202.7"/>
<text text-anchor="start" x="28" y="-192.8" font-family="Helvetica,sans-Serif" font-size="11.00" fill="#000000">pid</text>
<polygon fill="none" stroke="#000000" points="8,-163.7 8,-185.7 256,-185.7 256,-163.7 8,-163.7"/>
<image xlink:href="../../images/foreignKeys.png" width="11px" height="12px" preserveAspectRatio="xMinYMin meet" x="13" y="-180.7"/>
<text text-anchor="start" x="28" y="-170.8" font-family="Helvetica,sans-Serif" font-size="11.00" fill="#000000">advance_directive_user_authenticator</text>
<polygon fill="none" stroke="#000000" points="8,-141.7 8,-163.7 256,-163.7 256,-141.7 8,-141.7"/>
<image xlink:href="../../images/foreignKeys.png" width="11px" height="12px" preserveAspectRatio="xMinYMin meet" x="13" y="-158.7"/>
<text text-anchor="start" x="28" y="-148.8" font-family="Helvetica,sans-Serif" font-size="11.00" fill="#000000">created_by</text>
<polygon fill="none" stroke="#000000" points="8,-119.7 8,-141.7 256,-141.7 256,-119.7 8,-119.7"/>
<image xlink:href="../../images/foreignKeys.png" width="11px" height="12px" preserveAspectRatio="xMinYMin meet" x="13" y="-136.7"/>
<text text-anchor="start" x="28" y="-126.8" font-family="Helvetica,sans-Serif" font-size="11.00" fill="#000000">updated_by</text>
<polygon fill="none" stroke="#000000" points="8,-97.7 8,-119.7 256,-119.7 256,-97.7 8,-97.7"/>
<image xlink:href="../../images/foreignKeys.png" width="11px" height="12px" preserveAspectRatio="xMinYMin meet" x="13" y="-114.7"/>
<text text-anchor="start" x="28" y="-104.8" font-family="Helvetica,sans-Serif" font-size="11.00" fill="#000000">tribal_affiliations</text>
<polygon fill="none" stroke="#000000" points="8,-75.7 8,-97.7 256,-97.7 256,-75.7 8,-75.7"/>
<image xlink:href="../../images/foreignKeys.png" width="11px" height="12px" preserveAspectRatio="xMinYMin meet" x="13" y="-92.7"/>
<text text-anchor="start" x="28" y="-82.8" font-family="Helvetica,sans-Serif" font-size="11.00" fill="#000000">sex_identified</text>
<polygon fill="none" stroke="#000000" points="8,-56.7 8,-75.7 256,-75.7 256,-56.7 8,-56.7"/>
<text text-anchor="start" x="11" y="-62.8" font-family="Helvetica,sans-Serif" font-size="11.00" fill="#000000">...</text>
<polygon fill="#ffffff" stroke="transparent" points="8,-37.7 8,-56.7 123,-56.7 123,-37.7 8,-37.7"/>
<polygon fill="none" stroke="#000000" points="8,-37.7 8,-56.7 123,-56.7 123,-37.7 8,-37.7"/>
<text text-anchor="start" x="11" y="-43.8" font-family="Helvetica,sans-Serif" font-size="11.00" fill="#000000">&lt; 9</text>
<polygon fill="#ffffff" stroke="transparent" points="123,-37.7 123,-56.7 182,-56.7 182,-37.7 123,-37.7"/>
<polygon fill="none" stroke="#000000" points="123,-37.7 123,-56.7 182,-56.7 182,-37.7 123,-37.7"/>
<text text-anchor="start" x="172.8862" y="-43.8" font-family="Helvetica,sans-Serif" font-size="11.00" fill="#000000"> &#160;</text>
<polygon fill="#ffffff" stroke="transparent" points="182,-37.7 182,-56.7 256,-56.7 256,-37.7 182,-37.7"/>
<polygon fill="none" stroke="#000000" points="182,-37.7 182,-56.7 256,-56.7 256,-37.7 182,-37.7"/>
<text text-anchor="start" x="231.2904" y="-43.8" font-family="Helvetica,sans-Serif" font-size="11.00" fill="#000000">95 &gt;</text>
</a>
</g>
</g>
<!-- forms&#45;&gt;patient_data -->
<g id="edge1" class="edge">
<title>forms:w&#45;&gt;patient_data:e</title>
<path fill="none" stroke="#000000" d="M291.1846,-284.5079C268.4325,-266.51 296.355,-196.7 256,-196.7"/>
<polygon fill="#000000" stroke="#000000" points="297.3447,-286.377 303.9547,-292.1449 301.1723,-287.5385 305,-288.7 305,-288.7 305,-288.7 301.1723,-287.5385 306.0453,-285.2551 297.3447,-286.377 297.3447,-286.377"/>
<ellipse fill="none" stroke="#000000" cx="294.2825" cy="-285.4479" rx="3.2" ry="3.2"/>
</g>
<!-- form_track_anything -->
<g id="node3" class="node">
<title>form_track_anything</title>
<g id="a_node3"><a xlink:href="../../tables/form_track_anything.html" xlink:title="form_track_anything" target="_top">
<polygon fill="#ffffff" stroke="transparent" points="478,-131.7 478,-265.7 689,-265.7 689,-131.7 478,-131.7"/>
<polygon fill="#f5f5f5" stroke="transparent" points="480.5,-240.7 480.5,-263.7 687.5,-263.7 687.5,-240.7 480.5,-240.7"/>
<polygon fill="none" stroke="#000000" points="480.5,-240.7 480.5,-263.7 687.5,-263.7 687.5,-240.7 480.5,-240.7"/>
<text text-anchor="start" x="485.5" y="-249.3" font-family="Helvetica,sans-Serif" font-weight="bold" font-size="11.00" fill="#000000">form_track_anything</text>
<text text-anchor="start" x="652.5437" y="-248.8" font-family="Helvetica,sans-Serif" font-size="11.00" fill="#000000">[table]</text>
<polygon fill="none" stroke="#000000" points="480.5,-218.7 480.5,-240.7 625.5,-240.7 625.5,-218.7 480.5,-218.7"/>
<image xlink:href="../../images/primaryKeys.png" width="11px" height="12px" preserveAspectRatio="xMinYMin meet" x="485.5" y="-235.7"/>
<text text-anchor="start" x="500.5" y="-225.8" font-family="Helvetica,sans-Serif" font-size="11.00" fill="#000000">id</text>
<polygon fill="none" stroke="#000000" points="625.5,-218.7 625.5,-240.7 687.5,-240.7 687.5,-218.7 625.5,-218.7"/>
<text text-anchor="start" x="628.378" y="-226.4" font-family="Helvetica,sans-Serif" font-size="11.00" fill="#000000">unknown[0]</text>
<polygon fill="none" stroke="#000000" points="480.5,-196.7 480.5,-218.7 625.5,-218.7 625.5,-196.7 480.5,-196.7"/>
<text text-anchor="start" x="500.5" y="-203.8" font-family="Helvetica,sans-Serif" font-size="11.00" fill="#000000">name</text>
<polygon fill="none" stroke="#000000" points="625.5,-196.7 625.5,-218.7 687.5,-218.7 687.5,-196.7 625.5,-196.7"/>
<text text-anchor="start" x="628.378" y="-204.4" font-family="Helvetica,sans-Serif" font-size="11.00" fill="#000000">unknown[0]</text>
<polygon fill="none" stroke="#000000" points="480.5,-174.7 480.5,-196.7 625.5,-196.7 625.5,-174.7 480.5,-174.7"/>
<image xlink:href="../../images/foreignKeys.png" width="11px" height="12px" preserveAspectRatio="xMinYMin meet" x="485.5" y="-191.7"/>
<text text-anchor="start" x="500.5" y="-181.8" font-family="Helvetica,sans-Serif" font-size="11.00" fill="#000000">pid</text>
<polygon fill="none" stroke="#000000" points="625.5,-174.7 625.5,-196.7 687.5,-196.7 687.5,-174.7 625.5,-174.7"/>
<text text-anchor="start" x="628.378" y="-182.4" font-family="Helvetica,sans-Serif" font-size="11.00" fill="#000000">unknown[0]</text>
<polygon fill="none" stroke="#000000" points="480.5,-152.7 480.5,-174.7 625.5,-174.7 625.5,-152.7 480.5,-152.7"/>
<text text-anchor="start" x="500.5" y="-159.8" font-family="Helvetica,sans-Serif" font-size="11.00" fill="#000000">procedure_type_id</text>
<polygon fill="none" stroke="#000000" points="625.5,-152.7 625.5,-174.7 687.5,-174.7 687.5,-152.7 625.5,-152.7"/>
<text text-anchor="start" x="628.378" y="-160.4" font-family="Helvetica,sans-Serif" font-size="11.00" fill="#000000">unknown[0]</text>
<polygon fill="#ffffff" stroke="transparent" points="480.5,-133.7 480.5,-152.7 557.5,-152.7 557.5,-133.7 480.5,-133.7"/>
<polygon fill="none" stroke="#000000" points="480.5,-133.7 480.5,-152.7 557.5,-152.7 557.5,-133.7 480.5,-133.7"/>
<text text-anchor="start" x="483.5" y="-139.8" font-family="Helvetica,sans-Serif" font-size="11.00" fill="#000000">&lt; 2</text>
<polygon fill="#ffffff" stroke="transparent" points="557.5,-133.7 557.5,-152.7 625.5,-152.7 625.5,-133.7 557.5,-133.7"/>
<polygon fill="none" stroke="#000000" points="557.5,-133.7 557.5,-152.7 625.5,-152.7 625.5,-133.7 557.5,-133.7"/>
<text text-anchor="start" x="616.3862" y="-139.8" font-family="Helvetica,sans-Serif" font-size="11.00" fill="#000000"> &#160;</text>
<polygon fill="#ffffff" stroke="transparent" points="625.5,-133.7 625.5,-152.7 687.5,-152.7 687.5,-133.7 625.5,-133.7"/>
<polygon fill="none" stroke="#000000" points="625.5,-133.7 625.5,-152.7 687.5,-152.7 687.5,-133.7 625.5,-133.7"/>
<text text-anchor="start" x="668.9053" y="-139.8" font-family="Helvetica,sans-Serif" font-size="11.00" fill="#000000">1 &gt;</text>
<polygon fill="none" stroke="#000000" stroke-width="2" points="479,-132.7 479,-264.7 688,-264.7 688,-132.7 479,-132.7"/>
</a>
</g>
</g>
<!-- form_track_anything&#45;&gt;forms -->
<g id="edge2" class="edge">
<title>form_track_anything:w&#45;&gt;forms:e</title>
<path fill="none" stroke="#000000" d="M470.0475,-231.8666C443.7159,-244.7478 467.4943,-310.7 429,-310.7"/>
<polygon fill="#000000" stroke="#000000" points="478.9048,-225.9456 480.5285,-233.7791 478.9618,-234.1039 477.3381,-226.2704 478.9048,-225.9456"/>
<polyline fill="none" stroke="#000000" points="480.5,-229.7 476.5833,-230.5119 "/>
<ellipse fill="none" stroke="#000000" cx="473.4499" cy="-231.1614" rx="3.2" ry="3.2"/>
</g>
<!-- form_track_anything&#45;&gt;patient_data -->
<g id="edge3" class="edge">
<title>form_track_anything:w&#45;&gt;patient_data:e</title>
<path fill="none" stroke="#000000" d="M466.5052,-181.3965C451.7497,-169.0232 462.3729,-133.3652 437,-119.7 382.2177,-90.1957 350.3443,-87.6689 297,-119.7 263.7607,-139.6589 294.7713,-196.7 256,-196.7"/>
<polygon fill="#000000" stroke="#000000" points="472.8534,-183.3486 479.4419,-189.141 476.6767,-184.5243 480.5,-185.7 480.5,-185.7 480.5,-185.7 476.6767,-184.5243 481.5581,-182.259 472.8534,-183.3486 472.8534,-183.3486"/>
<ellipse fill="none" stroke="#000000" cx="469.7947" cy="-182.408" rx="3.2" ry="3.2"/>
</g>
<!-- form_track_anything_results -->
<g id="node4" class="node">
<title>form_track_anything_results</title>
<g id="a_node4"><a xlink:href="../../tables/form_track_anything_results.html" xlink:title="form_track_anything_results" target="_top">
<polygon fill="#ffffff" stroke="transparent" points="738,-181.2 738,-264.2 947,-264.2 947,-181.2 738,-181.2"/>
<polygon fill="#f5f5f5" stroke="transparent" points="738.5,-240.7 738.5,-263.7 947.5,-263.7 947.5,-240.7 738.5,-240.7"/>
<polygon fill="none" stroke="#000000" points="738.5,-240.7 738.5,-263.7 947.5,-263.7 947.5,-240.7 738.5,-240.7"/>
<text text-anchor="start" x="743.5" y="-249.3" font-family="Helvetica,sans-Serif" font-weight="bold" font-size="11.00" fill="#000000">form_track_anything_results</text>
<text text-anchor="start" x="913.0219" y="-248.8" font-family="Helvetica,sans-Serif" font-size="11.00" fill="#000000">[table]</text>
<polygon fill="none" stroke="#000000" points="738.5,-218.7 738.5,-240.7 947.5,-240.7 947.5,-218.7 738.5,-218.7"/>
<image xlink:href="../../images/foreignKeys.png" width="11px" height="12px" preserveAspectRatio="xMinYMin meet" x="743.5" y="-235.7"/>
<text text-anchor="start" x="767.5" y="-225.8" font-family="Helvetica,sans-Serif" font-size="11.00" fill="#000000">track_anything_id</text>
<polygon fill="none" stroke="#000000" points="738.5,-199.7 738.5,-218.7 947.5,-218.7 947.5,-199.7 738.5,-199.7"/>
<text text-anchor="start" x="741.5" y="-205.8" font-family="Helvetica,sans-Serif" font-size="11.00" fill="#000000">...</text>
<polygon fill="#ffffff" stroke="transparent" points="738.5,-180.7 738.5,-199.7 841.5,-199.7 841.5,-180.7 738.5,-180.7"/>
<polygon fill="none" stroke="#000000" points="738.5,-180.7 738.5,-199.7 841.5,-199.7 841.5,-180.7 738.5,-180.7"/>
<text text-anchor="start" x="741.5" y="-186.8" font-family="Helvetica,sans-Serif" font-size="11.00" fill="#000000">&lt; 1</text>
<polygon fill="#ffffff" stroke="transparent" points="841.5,-180.7 841.5,-199.7 894.5,-199.7 894.5,-180.7 841.5,-180.7"/>
<polygon fill="none" stroke="#000000" points="841.5,-180.7 841.5,-199.7 894.5,-199.7 894.5,-180.7 841.5,-180.7"/>
<text text-anchor="start" x="885.3862" y="-186.8" font-family="Helvetica,sans-Serif" font-size="11.00" fill="#000000"> &#160;</text>
<polygon fill="#ffffff" stroke="transparent" points="894.5,-180.7 894.5,-199.7 947.5,-199.7 947.5,-180.7 894.5,-180.7"/>
<polygon fill="none" stroke="#000000" points="894.5,-180.7 894.5,-199.7 947.5,-199.7 947.5,-180.7 894.5,-180.7"/>
<text text-anchor="start" x="938.3862" y="-186.8" font-family="Helvetica,sans-Serif" font-size="11.00" fill="#000000"> &#160;</text>
</a>
</g>
</g>
<!-- form_track_anything_results&#45;&gt;form_track_anything -->
<g id="edge4" class="edge">
<title>form_track_anything_results:w&#45;&gt;form_track_anything:e</title>
<path fill="none" stroke="#000000" d="M723.776,-229.7C711.7815,-229.7 704.3229,-229.7 687.5,-229.7"/>
<polygon fill="#000000" stroke="#000000" points="730.5,-229.7001 738.5,-233.3 734.5,-229.7 738.5,-229.7 738.5,-229.7 738.5,-229.7 734.5,-229.7 738.5,-226.1 730.5,-229.7001 730.5,-229.7001"/>
<ellipse fill="none" stroke="#000000" cx="727.3" cy="-229.7001" rx="3.2" ry="3.2"/>
</g>
</g>
</svg>
