<?xml version="1.0" encoding="UTF-8" standalone="no"?>
<!DOCTYPE svg PUBLIC "-//W3C//DTD SVG 1.1//EN"
 "http://www.w3.org/Graphics/SVG/1.1/DTD/svg11.dtd">
<!-- Generated by graphviz version 2.40.1 (20161225.0304)
 -->
<!-- Title: oneDegreeRelationshipsDiagram Pages: 1 -->
<svg width="158pt" height="118pt"
 viewBox="0.00 0.00 158.00 118.20" xmlns="http://www.w3.org/2000/svg" xmlns:xlink="http://www.w3.org/1999/xlink">
<g id="graph0" class="graph" transform="scale(1 1) rotate(0) translate(4 114.2)">
<title>oneDegreeRelationshipsDiagram</title>
<polygon fill="#ffffff" stroke="transparent" points="-4,4 -4,-114.2 154,-114.2 154,4 -4,4"/>
<text text-anchor="middle" x="72.4936" y="-7.3" font-family="Helvetica,sans-Serif" font-size="11.00" fill="#000000">Generated by SchemaSpy</text>
<!-- gacl_aro_seq -->
<g id="node1" class="node">
<title>gacl_aro_seq</title>
<g id="a_node1"><a xlink:href="../../tables/gacl_aro_seq.html" xlink:title="gacl_aro_seq" target="_top">
<polygon fill="#ffffff" stroke="transparent" points="8,-38.2 8,-106.2 142,-106.2 142,-38.2 8,-38.2"/>
<polygon fill="#f5f5f5" stroke="transparent" points="10,-81.2 10,-104.2 140,-104.2 140,-81.2 10,-81.2"/>
<polygon fill="none" stroke="#000000" points="10,-81.2 10,-104.2 140,-104.2 140,-81.2 10,-81.2"/>
<text text-anchor="start" x="15" y="-89.8" font-family="Helvetica,sans-Serif" font-weight="bold" font-size="11.00" fill="#000000">gacl_aro_seq</text>
<text text-anchor="start" x="105.0437" y="-89.3" font-family="Helvetica,sans-Serif" font-size="11.00" fill="#000000">[table]</text>
<polygon fill="none" stroke="#000000" points="10,-59.2 10,-81.2 105,-81.2 105,-59.2 10,-59.2"/>
<text text-anchor="start" x="30" y="-66.3" font-family="Helvetica,sans-Serif" font-size="11.00" fill="#000000">id</text>
<polygon fill="none" stroke="#000000" points="105,-59.2 105,-81.2 140,-81.2 140,-59.2 105,-59.2"/>
<text text-anchor="start" x="107.5219" y="-66.9" font-family="Helvetica,sans-Serif" font-size="11.00" fill="#000000">int[10]</text>
<polygon fill="#ffffff" stroke="transparent" points="10,-40.2 10,-59.2 62,-59.2 62,-40.2 10,-40.2"/>
<polygon fill="none" stroke="#000000" points="10,-40.2 10,-59.2 62,-59.2 62,-40.2 10,-40.2"/>
<text text-anchor="start" x="13" y="-46.3" font-family="Helvetica,sans-Serif" font-size="11.00" fill="#000000">&lt; 0</text>
<polygon fill="#ffffff" stroke="transparent" points="62,-40.2 62,-59.2 105,-59.2 105,-40.2 62,-40.2"/>
<polygon fill="none" stroke="#000000" points="62,-40.2 62,-59.2 105,-59.2 105,-40.2 62,-40.2"/>
<text text-anchor="start" x="95.8862" y="-46.3" font-family="Helvetica,sans-Serif" font-size="11.00" fill="#000000"> &#160;</text>
<polygon fill="#ffffff" stroke="transparent" points="105,-40.2 105,-59.2 140,-59.2 140,-40.2 105,-40.2"/>
<polygon fill="none" stroke="#000000" points="105,-40.2 105,-59.2 140,-59.2 140,-40.2 105,-40.2"/>
<text text-anchor="start" x="121.4053" y="-46.3" font-family="Helvetica,sans-Serif" font-size="11.00" fill="#000000">0 &gt;</text>
<polygon fill="none" stroke="#000000" stroke-width="2" points="9,-39.2 9,-105.2 141,-105.2 141,-39.2 9,-39.2"/>
</a>
</g>
</g>
</g>
</svg>
