<?xml version="1.0" encoding="UTF-8" standalone="no"?>
<!DOCTYPE svg PUBLIC "-//W3C//DTD SVG 1.1//EN"
 "http://www.w3.org/Graphics/SVG/1.1/DTD/svg11.dtd">
<!-- Generated by graphviz version 2.40.1 (20161225.0304)
 -->
<!-- Title: oneDegreeRelationshipsDiagram Pages: 1 -->
<svg width="753pt" height="951pt"
 viewBox="0.00 0.00 753.00 951.20" xmlns="http://www.w3.org/2000/svg" xmlns:xlink="http://www.w3.org/1999/xlink">
<g id="graph0" class="graph" transform="scale(1 1) rotate(0) translate(4 947.2)">
<title>oneDegreeRelationshipsDiagram</title>
<polygon fill="#ffffff" stroke="transparent" points="-4,4 -4,-947.2 749,-947.2 749,4 -4,4"/>
<text text-anchor="middle" x="72.4936" y="-7.3" font-family="Helvetica,sans-Serif" font-size="11.00" fill="#000000">Generated by SchemaSpy</text>
<!-- ar_session -->
<g id="node1" class="node">
<title>ar_session</title>
<g id="a_node1"><a xlink:href="../../tables/ar_session.html" xlink:title="ar_session" target="_top">
<polygon fill="#ffffff" stroke="transparent" points="561.5,-680.2 561.5,-939.2 687.5,-939.2 687.5,-680.2 561.5,-680.2"/>
<polygon fill="#f5f5f5" stroke="transparent" points="561.5,-915.7 561.5,-938.7 687.5,-938.7 687.5,-915.7 561.5,-915.7"/>
<polygon fill="none" stroke="#000000" points="561.5,-915.7 561.5,-938.7 687.5,-938.7 687.5,-915.7 561.5,-915.7"/>
<text text-anchor="start" x="566.5" y="-924.3" font-family="Helvetica,sans-Serif" font-weight="bold" font-size="11.00" fill="#000000">ar_session</text>
<text text-anchor="start" x="652.5437" y="-923.8" font-family="Helvetica,sans-Serif" font-size="11.00" fill="#000000">[table]</text>
<polygon fill="none" stroke="#000000" points="561.5,-893.7 561.5,-915.7 687.5,-915.7 687.5,-893.7 561.5,-893.7"/>
<image xlink:href="../../images/primaryKeys.png" width="11px" height="12px" preserveAspectRatio="xMinYMin meet" x="566.5" y="-910.7"/>
<text text-anchor="start" x="581.5" y="-900.8" font-family="Helvetica,sans-Serif" font-size="11.00" fill="#000000">session_id</text>
<polygon fill="none" stroke="#000000" points="561.5,-871.7 561.5,-893.7 687.5,-893.7 687.5,-871.7 561.5,-871.7"/>
<image xlink:href="../../images/foreignKeys.png" width="11px" height="12px" preserveAspectRatio="xMinYMin meet" x="566.5" y="-888.7"/>
<text text-anchor="start" x="581.5" y="-878.8" font-family="Helvetica,sans-Serif" font-size="11.00" fill="#000000">payer_id</text>
<polygon fill="#ffffff" stroke="transparent" points="561.5,-849.7 561.5,-871.7 687.5,-871.7 687.5,-849.7 561.5,-849.7"/>
<polygon fill="none" stroke="#000000" points="561.5,-849.7 561.5,-871.7 687.5,-871.7 687.5,-849.7 561.5,-849.7"/>
<image xlink:href="../../images/foreignKeys.png" width="11px" height="12px" preserveAspectRatio="xMinYMin meet" x="566.5" y="-866.7"/>
<text text-anchor="start" x="581.5" y="-856.8" font-family="Helvetica,sans-Serif" font-size="11.00" fill="#000000">user_id</text>
<polygon fill="#ffffff" stroke="transparent" points="561.5,-827.7 561.5,-849.7 687.5,-849.7 687.5,-827.7 561.5,-827.7"/>
<polygon fill="none" stroke="#000000" points="561.5,-827.7 561.5,-849.7 687.5,-849.7 687.5,-827.7 561.5,-827.7"/>
<text text-anchor="start" x="581.5" y="-834.8" font-family="Helvetica,sans-Serif" font-size="11.00" fill="#000000">closed</text>
<polygon fill="#ffffff" stroke="transparent" points="561.5,-805.7 561.5,-827.7 687.5,-827.7 687.5,-805.7 561.5,-805.7"/>
<polygon fill="none" stroke="#000000" points="561.5,-805.7 561.5,-827.7 687.5,-827.7 687.5,-805.7 561.5,-805.7"/>
<text text-anchor="start" x="581.5" y="-812.8" font-family="Helvetica,sans-Serif" font-size="11.00" fill="#000000">deposit_date</text>
<polygon fill="none" stroke="#000000" points="561.5,-783.7 561.5,-805.7 687.5,-805.7 687.5,-783.7 561.5,-783.7"/>
<image xlink:href="../../images/foreignKeys.png" width="11px" height="12px" preserveAspectRatio="xMinYMin meet" x="566.5" y="-800.7"/>
<text text-anchor="start" x="581.5" y="-790.8" font-family="Helvetica,sans-Serif" font-size="11.00" fill="#000000">payment_type</text>
<polygon fill="none" stroke="#000000" points="561.5,-761.7 561.5,-783.7 687.5,-783.7 687.5,-761.7 561.5,-761.7"/>
<image xlink:href="../../images/foreignKeys.png" width="11px" height="12px" preserveAspectRatio="xMinYMin meet" x="566.5" y="-778.7"/>
<text text-anchor="start" x="581.5" y="-768.8" font-family="Helvetica,sans-Serif" font-size="11.00" fill="#000000">adjustment_code</text>
<polygon fill="none" stroke="#000000" points="561.5,-739.7 561.5,-761.7 687.5,-761.7 687.5,-739.7 561.5,-739.7"/>
<image xlink:href="../../images/foreignKeys.png" width="11px" height="12px" preserveAspectRatio="xMinYMin meet" x="566.5" y="-756.7"/>
<text text-anchor="start" x="581.5" y="-746.8" font-family="Helvetica,sans-Serif" font-size="11.00" fill="#000000">patient_id</text>
<polygon fill="none" stroke="#000000" points="561.5,-717.7 561.5,-739.7 687.5,-739.7 687.5,-717.7 561.5,-717.7"/>
<image xlink:href="../../images/foreignKeys.png" width="11px" height="12px" preserveAspectRatio="xMinYMin meet" x="566.5" y="-734.7"/>
<text text-anchor="start" x="581.5" y="-724.8" font-family="Helvetica,sans-Serif" font-size="11.00" fill="#000000">payment_method</text>
<polygon fill="none" stroke="#000000" points="561.5,-698.7 561.5,-717.7 687.5,-717.7 687.5,-698.7 561.5,-698.7"/>
<text text-anchor="start" x="564.5" y="-704.8" font-family="Helvetica,sans-Serif" font-size="11.00" fill="#000000">...</text>
<polygon fill="#ffffff" stroke="transparent" points="561.5,-679.7 561.5,-698.7 618.5,-698.7 618.5,-679.7 561.5,-679.7"/>
<polygon fill="none" stroke="#000000" points="561.5,-679.7 561.5,-698.7 618.5,-698.7 618.5,-679.7 561.5,-679.7"/>
<text text-anchor="start" x="564.5" y="-685.8" font-family="Helvetica,sans-Serif" font-size="11.00" fill="#000000">&lt; 6</text>
<polygon fill="#ffffff" stroke="transparent" points="618.5,-679.7 618.5,-698.7 648.5,-698.7 648.5,-679.7 618.5,-679.7"/>
<polygon fill="none" stroke="#000000" points="618.5,-679.7 618.5,-698.7 648.5,-698.7 648.5,-679.7 618.5,-679.7"/>
<text text-anchor="start" x="639.3862" y="-685.8" font-family="Helvetica,sans-Serif" font-size="11.00" fill="#000000"> &#160;</text>
<polygon fill="#ffffff" stroke="transparent" points="648.5,-679.7 648.5,-698.7 687.5,-698.7 687.5,-679.7 648.5,-679.7"/>
<polygon fill="none" stroke="#000000" points="648.5,-679.7 648.5,-698.7 687.5,-698.7 687.5,-679.7 648.5,-679.7"/>
<text text-anchor="start" x="668.9053" y="-685.8" font-family="Helvetica,sans-Serif" font-size="11.00" fill="#000000">1 &gt;</text>
</a>
</g>
</g>
<!-- insurance_companies -->
<g id="node2" class="node">
<title>insurance_companies</title>
<g id="a_node2"><a xlink:href="../../tables/insurance_companies.html" xlink:title="insurance_companies" target="_top">
<polygon fill="#ffffff" stroke="transparent" points="226,-152.7 226,-528.7 463,-528.7 463,-152.7 226,-152.7"/>
<polygon fill="#f5f5f5" stroke="transparent" points="228.5,-503.7 228.5,-526.7 461.5,-526.7 461.5,-503.7 228.5,-503.7"/>
<polygon fill="none" stroke="#000000" points="228.5,-503.7 228.5,-526.7 461.5,-526.7 461.5,-503.7 228.5,-503.7"/>
<text text-anchor="start" x="233.5" y="-512.3" font-family="Helvetica,sans-Serif" font-weight="bold" font-size="11.00" fill="#000000">insurance_companies</text>
<text text-anchor="start" x="426.5437" y="-511.8" font-family="Helvetica,sans-Serif" font-size="11.00" fill="#000000">[table]</text>
<polygon fill="none" stroke="#000000" points="228.5,-481.7 228.5,-503.7 394.5,-503.7 394.5,-481.7 228.5,-481.7"/>
<image xlink:href="../../images/primaryKeys.png" width="11px" height="12px" preserveAspectRatio="xMinYMin meet" x="233.5" y="-498.7"/>
<text text-anchor="start" x="248.5" y="-488.8" font-family="Helvetica,sans-Serif" font-size="11.00" fill="#000000">id</text>
<polygon fill="none" stroke="#000000" points="394.5,-481.7 394.5,-503.7 461.5,-503.7 461.5,-481.7 394.5,-481.7"/>
<text text-anchor="start" x="397.5" y="-489.4" font-family="Helvetica,sans-Serif" font-size="11.00" fill="#000000">int[10]</text>
<polygon fill="#ffffff" stroke="transparent" points="228.5,-459.7 228.5,-481.7 394.5,-481.7 394.5,-459.7 228.5,-459.7"/>
<polygon fill="none" stroke="#000000" points="228.5,-459.7 228.5,-481.7 394.5,-481.7 394.5,-459.7 228.5,-459.7"/>
<text text-anchor="start" x="248.5" y="-466.8" font-family="Helvetica,sans-Serif" font-size="11.00" fill="#000000">uuid</text>
<polygon fill="none" stroke="#000000" points="394.5,-459.7 394.5,-481.7 461.5,-481.7 461.5,-459.7 394.5,-459.7"/>
<text text-anchor="start" x="397.5" y="-467.4" font-family="Helvetica,sans-Serif" font-size="11.00" fill="#000000">binary[16]</text>
<polygon fill="none" stroke="#000000" points="228.5,-437.7 228.5,-459.7 394.5,-459.7 394.5,-437.7 228.5,-437.7"/>
<text text-anchor="start" x="248.5" y="-444.8" font-family="Helvetica,sans-Serif" font-size="11.00" fill="#000000">name</text>
<polygon fill="none" stroke="#000000" points="394.5,-437.7 394.5,-459.7 461.5,-459.7 461.5,-437.7 394.5,-437.7"/>
<text text-anchor="start" x="397.4365" y="-445.4" font-family="Helvetica,sans-Serif" font-size="11.00" fill="#000000">varchar[255]</text>
<polygon fill="none" stroke="#000000" points="228.5,-415.7 228.5,-437.7 394.5,-437.7 394.5,-415.7 228.5,-415.7"/>
<text text-anchor="start" x="248.5" y="-422.8" font-family="Helvetica,sans-Serif" font-size="11.00" fill="#000000">attn</text>
<polygon fill="none" stroke="#000000" points="394.5,-415.7 394.5,-437.7 461.5,-437.7 461.5,-415.7 394.5,-415.7"/>
<text text-anchor="start" x="397.4365" y="-423.4" font-family="Helvetica,sans-Serif" font-size="11.00" fill="#000000">varchar[255]</text>
<polygon fill="none" stroke="#000000" points="228.5,-393.7 228.5,-415.7 394.5,-415.7 394.5,-393.7 228.5,-393.7"/>
<text text-anchor="start" x="248.5" y="-400.8" font-family="Helvetica,sans-Serif" font-size="11.00" fill="#000000">cms_id</text>
<polygon fill="none" stroke="#000000" points="394.5,-393.7 394.5,-415.7 461.5,-415.7 461.5,-393.7 394.5,-393.7"/>
<text text-anchor="start" x="397.5" y="-401.4" font-family="Helvetica,sans-Serif" font-size="11.00" fill="#000000">varchar[15]</text>
<polygon fill="none" stroke="#000000" points="228.5,-371.7 228.5,-393.7 394.5,-393.7 394.5,-371.7 228.5,-371.7"/>
<image xlink:href="../../images/foreignKeys.png" width="11px" height="12px" preserveAspectRatio="xMinYMin meet" x="233.5" y="-388.7"/>
<text text-anchor="start" x="248.5" y="-378.8" font-family="Helvetica,sans-Serif" font-size="11.00" fill="#000000">ins_type_code</text>
<polygon fill="none" stroke="#000000" points="394.5,-371.7 394.5,-393.7 461.5,-393.7 461.5,-371.7 394.5,-371.7"/>
<text text-anchor="start" x="397.5" y="-379.4" font-family="Helvetica,sans-Serif" font-size="11.00" fill="#000000">int[10]</text>
<polygon fill="none" stroke="#000000" points="228.5,-349.7 228.5,-371.7 394.5,-371.7 394.5,-349.7 228.5,-349.7"/>
<text text-anchor="start" x="248.5" y="-356.8" font-family="Helvetica,sans-Serif" font-size="11.00" fill="#000000">x12_receiver_id</text>
<polygon fill="none" stroke="#000000" points="394.5,-349.7 394.5,-371.7 461.5,-371.7 461.5,-349.7 394.5,-349.7"/>
<text text-anchor="start" x="397.5" y="-357.4" font-family="Helvetica,sans-Serif" font-size="11.00" fill="#000000">varchar[25]</text>
<polygon fill="none" stroke="#000000" points="228.5,-327.7 228.5,-349.7 394.5,-349.7 394.5,-327.7 228.5,-327.7"/>
<text text-anchor="start" x="248.5" y="-334.8" font-family="Helvetica,sans-Serif" font-size="11.00" fill="#000000">x12_default_partner_id</text>
<polygon fill="none" stroke="#000000" points="394.5,-327.7 394.5,-349.7 461.5,-349.7 461.5,-327.7 394.5,-327.7"/>
<text text-anchor="start" x="397.5" y="-335.4" font-family="Helvetica,sans-Serif" font-size="11.00" fill="#000000">int[10]</text>
<polygon fill="none" stroke="#000000" points="228.5,-305.7 228.5,-327.7 394.5,-327.7 394.5,-305.7 228.5,-305.7"/>
<text text-anchor="start" x="248.5" y="-312.8" font-family="Helvetica,sans-Serif" font-size="11.00" fill="#000000">alt_cms_id</text>
<polygon fill="none" stroke="#000000" points="394.5,-305.7 394.5,-327.7 461.5,-327.7 461.5,-305.7 394.5,-305.7"/>
<text text-anchor="start" x="397.5" y="-313.4" font-family="Helvetica,sans-Serif" font-size="11.00" fill="#000000">varchar[15]</text>
<polygon fill="none" stroke="#000000" points="228.5,-283.7 228.5,-305.7 394.5,-305.7 394.5,-283.7 228.5,-283.7"/>
<text text-anchor="start" x="248.5" y="-290.8" font-family="Helvetica,sans-Serif" font-size="11.00" fill="#000000">inactive</text>
<polygon fill="none" stroke="#000000" points="394.5,-283.7 394.5,-305.7 461.5,-305.7 461.5,-283.7 394.5,-283.7"/>
<text text-anchor="start" x="397.5" y="-291.4" font-family="Helvetica,sans-Serif" font-size="11.00" fill="#000000">boolean[3]</text>
<polygon fill="none" stroke="#000000" points="228.5,-261.7 228.5,-283.7 394.5,-283.7 394.5,-261.7 228.5,-261.7"/>
<text text-anchor="start" x="248.5" y="-268.8" font-family="Helvetica,sans-Serif" font-size="11.00" fill="#000000">eligibility_id</text>
<polygon fill="none" stroke="#000000" points="394.5,-261.7 394.5,-283.7 461.5,-283.7 461.5,-261.7 394.5,-261.7"/>
<text text-anchor="start" x="397.5" y="-269.4" font-family="Helvetica,sans-Serif" font-size="11.00" fill="#000000">varchar[32]</text>
<polygon fill="none" stroke="#000000" points="228.5,-239.7 228.5,-261.7 394.5,-261.7 394.5,-239.7 228.5,-239.7"/>
<text text-anchor="start" x="248.5" y="-246.8" font-family="Helvetica,sans-Serif" font-size="11.00" fill="#000000">x12_default_eligibility_id</text>
<polygon fill="none" stroke="#000000" points="394.5,-239.7 394.5,-261.7 461.5,-261.7 461.5,-239.7 394.5,-239.7"/>
<text text-anchor="start" x="397.5" y="-247.4" font-family="Helvetica,sans-Serif" font-size="11.00" fill="#000000">int[10]</text>
<polygon fill="none" stroke="#000000" points="228.5,-217.7 228.5,-239.7 394.5,-239.7 394.5,-217.7 228.5,-217.7"/>
<text text-anchor="start" x="248.5" y="-224.8" font-family="Helvetica,sans-Serif" font-size="11.00" fill="#000000">cqm_sop</text>
<polygon fill="none" stroke="#000000" points="394.5,-217.7 394.5,-239.7 461.5,-239.7 461.5,-217.7 394.5,-217.7"/>
<text text-anchor="start" x="397.5" y="-225.4" font-family="Helvetica,sans-Serif" font-size="11.00" fill="#000000">int[10]</text>
<polygon fill="none" stroke="#000000" points="228.5,-195.7 228.5,-217.7 394.5,-217.7 394.5,-195.7 228.5,-195.7"/>
<text text-anchor="start" x="248.5" y="-202.8" font-family="Helvetica,sans-Serif" font-size="11.00" fill="#000000">date_created</text>
<polygon fill="none" stroke="#000000" points="394.5,-195.7 394.5,-217.7 461.5,-217.7 461.5,-195.7 394.5,-195.7"/>
<text text-anchor="start" x="397.5" y="-203.4" font-family="Helvetica,sans-Serif" font-size="11.00" fill="#000000">datetime[19]</text>
<polygon fill="none" stroke="#000000" points="228.5,-173.7 228.5,-195.7 394.5,-195.7 394.5,-173.7 228.5,-173.7"/>
<text text-anchor="start" x="248.5" y="-180.8" font-family="Helvetica,sans-Serif" font-size="11.00" fill="#000000">last_updated</text>
<polygon fill="none" stroke="#000000" points="394.5,-173.7 394.5,-195.7 461.5,-195.7 461.5,-173.7 394.5,-173.7"/>
<text text-anchor="start" x="397.5" y="-181.4" font-family="Helvetica,sans-Serif" font-size="11.00" fill="#000000">datetime[19]</text>
<polygon fill="#ffffff" stroke="transparent" points="228.5,-154.7 228.5,-173.7 315.5,-173.7 315.5,-154.7 228.5,-154.7"/>
<polygon fill="none" stroke="#000000" points="228.5,-154.7 228.5,-173.7 315.5,-173.7 315.5,-154.7 228.5,-154.7"/>
<text text-anchor="start" x="231.5" y="-160.8" font-family="Helvetica,sans-Serif" font-size="11.00" fill="#000000">&lt; 1</text>
<polygon fill="#ffffff" stroke="transparent" points="315.5,-154.7 315.5,-173.7 394.5,-173.7 394.5,-154.7 315.5,-154.7"/>
<polygon fill="none" stroke="#000000" points="315.5,-154.7 315.5,-173.7 394.5,-173.7 394.5,-154.7 315.5,-154.7"/>
<text text-anchor="start" x="385.3862" y="-160.8" font-family="Helvetica,sans-Serif" font-size="11.00" fill="#000000"> &#160;</text>
<polygon fill="#ffffff" stroke="transparent" points="394.5,-154.7 394.5,-173.7 461.5,-173.7 461.5,-154.7 394.5,-154.7"/>
<polygon fill="none" stroke="#000000" points="394.5,-154.7 394.5,-173.7 461.5,-173.7 461.5,-154.7 394.5,-154.7"/>
<text text-anchor="start" x="442.9053" y="-160.8" font-family="Helvetica,sans-Serif" font-size="11.00" fill="#000000">5 &gt;</text>
<polygon fill="none" stroke="#000000" stroke-width="2" points="227,-153.7 227,-527.7 462,-527.7 462,-153.7 227,-153.7"/>
</a>
</g>
</g>
<!-- ar_session&#45;&gt;insurance_companies -->
<g id="edge1" class="edge">
<title>ar_session:w&#45;&gt;insurance_companies:e</title>
<path fill="none" stroke="#000000" d="M546.8326,-881.6645C470.264,-869.8641 526.9021,-759.5192 504,-669.7 494.0055,-630.5028 501.9513,-492.7 461.5,-492.7"/>
<polygon fill="#000000" stroke="#000000" points="553.5199,-882.1365 561.2464,-886.2911 557.5099,-882.4183 561.5,-882.7 561.5,-882.7 561.5,-882.7 557.5099,-882.4183 561.7536,-879.1089 553.5199,-882.1365 553.5199,-882.1365"/>
<ellipse fill="none" stroke="#000000" cx="550.3278" cy="-881.9112" rx="3.2" ry="3.2"/>
</g>
<!-- insurance_type_codes -->
<g id="node5" class="node">
<title>insurance_type_codes</title>
<g id="a_node5"><a xlink:href="../../tables/insurance_type_codes.html" xlink:title="insurance_type_codes" target="_top">
<polygon fill="#ffffff" stroke="transparent" points="8,-334.2 8,-417.2 177,-417.2 177,-334.2 8,-334.2"/>
<polygon fill="#f5f5f5" stroke="transparent" points="8.5,-393.7 8.5,-416.7 177.5,-416.7 177.5,-393.7 8.5,-393.7"/>
<polygon fill="none" stroke="#000000" points="8.5,-393.7 8.5,-416.7 177.5,-416.7 177.5,-393.7 8.5,-393.7"/>
<text text-anchor="start" x="13.5" y="-402.3" font-family="Helvetica,sans-Serif" font-weight="bold" font-size="11.00" fill="#000000">insurance_type_codes</text>
<text text-anchor="start" x="143.0219" y="-401.8" font-family="Helvetica,sans-Serif" font-size="11.00" fill="#000000">[table]</text>
<polygon fill="none" stroke="#000000" points="8.5,-371.7 8.5,-393.7 177.5,-393.7 177.5,-371.7 8.5,-371.7"/>
<image xlink:href="../../images/primaryKeys.png" width="11px" height="12px" preserveAspectRatio="xMinYMin meet" x="13.5" y="-388.7"/>
<text text-anchor="start" x="37.5" y="-378.8" font-family="Helvetica,sans-Serif" font-size="11.00" fill="#000000">id</text>
<polygon fill="none" stroke="#000000" points="8.5,-352.7 8.5,-371.7 177.5,-371.7 177.5,-352.7 8.5,-352.7"/>
<text text-anchor="start" x="11.5" y="-358.8" font-family="Helvetica,sans-Serif" font-size="11.00" fill="#000000">...</text>
<polygon fill="#ffffff" stroke="transparent" points="8.5,-333.7 8.5,-352.7 82.5,-352.7 82.5,-333.7 8.5,-333.7"/>
<polygon fill="none" stroke="#000000" points="8.5,-333.7 8.5,-352.7 82.5,-352.7 82.5,-333.7 8.5,-333.7"/>
<text text-anchor="start" x="11.5" y="-339.8" font-family="Helvetica,sans-Serif" font-size="11.00" fill="#000000"> &#160;</text>
<polygon fill="#ffffff" stroke="transparent" points="82.5,-333.7 82.5,-352.7 125.5,-352.7 125.5,-333.7 82.5,-333.7"/>
<polygon fill="none" stroke="#000000" points="82.5,-333.7 82.5,-352.7 125.5,-352.7 125.5,-333.7 82.5,-333.7"/>
<text text-anchor="start" x="116.3862" y="-339.8" font-family="Helvetica,sans-Serif" font-size="11.00" fill="#000000"> &#160;</text>
<polygon fill="#ffffff" stroke="transparent" points="125.5,-333.7 125.5,-352.7 177.5,-352.7 177.5,-333.7 125.5,-333.7"/>
<polygon fill="none" stroke="#000000" points="125.5,-333.7 125.5,-352.7 177.5,-352.7 177.5,-333.7 125.5,-333.7"/>
<text text-anchor="start" x="158.9053" y="-339.8" font-family="Helvetica,sans-Serif" font-size="11.00" fill="#000000">1 &gt;</text>
</a>
</g>
</g>
<!-- insurance_companies&#45;&gt;insurance_type_codes -->
<g id="edge5" class="edge">
<title>insurance_companies:w&#45;&gt;insurance_type_codes:e</title>
<path fill="none" stroke="#000000" d="M213.776,-382.7C201.7815,-382.7 194.3229,-382.7 177.5,-382.7"/>
<polygon fill="#000000" stroke="#000000" points="220.5,-382.7001 228.5,-386.3 224.5,-382.7 228.5,-382.7 228.5,-382.7 228.5,-382.7 224.5,-382.7 228.5,-379.1 220.5,-382.7001 220.5,-382.7001"/>
<ellipse fill="none" stroke="#000000" cx="217.3" cy="-382.7001" rx="3.2" ry="3.2"/>
</g>
<!-- billing -->
<g id="node3" class="node">
<title>billing</title>
<g id="a_node3"><a xlink:href="../../tables/billing.html" xlink:title="billing" target="_top">
<polygon fill="#ffffff" stroke="transparent" points="570.5,-422.2 570.5,-659.2 678.5,-659.2 678.5,-422.2 570.5,-422.2"/>
<polygon fill="#f5f5f5" stroke="transparent" points="570.5,-635.7 570.5,-658.7 678.5,-658.7 678.5,-635.7 570.5,-635.7"/>
<polygon fill="none" stroke="#000000" points="570.5,-635.7 570.5,-658.7 678.5,-658.7 678.5,-635.7 570.5,-635.7"/>
<text text-anchor="start" x="575.5" y="-644.3" font-family="Helvetica,sans-Serif" font-weight="bold" font-size="11.00" fill="#000000">billing</text>
<text text-anchor="start" x="643.5437" y="-643.8" font-family="Helvetica,sans-Serif" font-size="11.00" fill="#000000">[table]</text>
<polygon fill="none" stroke="#000000" points="570.5,-613.7 570.5,-635.7 678.5,-635.7 678.5,-613.7 570.5,-613.7"/>
<image xlink:href="../../images/primaryKeys.png" width="11px" height="12px" preserveAspectRatio="xMinYMin meet" x="575.5" y="-630.7"/>
<text text-anchor="start" x="590.5" y="-620.8" font-family="Helvetica,sans-Serif" font-size="11.00" fill="#000000">id</text>
<polygon fill="#ffffff" stroke="transparent" points="570.5,-591.7 570.5,-613.7 678.5,-613.7 678.5,-591.7 570.5,-591.7"/>
<polygon fill="none" stroke="#000000" points="570.5,-591.7 570.5,-613.7 678.5,-613.7 678.5,-591.7 570.5,-591.7"/>
<image xlink:href="../../images/foreignKeys.png" width="11px" height="12px" preserveAspectRatio="xMinYMin meet" x="575.5" y="-608.7"/>
<text text-anchor="start" x="590.5" y="-598.8" font-family="Helvetica,sans-Serif" font-size="11.00" fill="#000000">pid</text>
<polygon fill="none" stroke="#000000" points="570.5,-569.7 570.5,-591.7 678.5,-591.7 678.5,-569.7 570.5,-569.7"/>
<image xlink:href="../../images/foreignKeys.png" width="11px" height="12px" preserveAspectRatio="xMinYMin meet" x="575.5" y="-586.7"/>
<text text-anchor="start" x="590.5" y="-576.8" font-family="Helvetica,sans-Serif" font-size="11.00" fill="#000000">provider_id</text>
<polygon fill="none" stroke="#000000" points="570.5,-547.7 570.5,-569.7 678.5,-569.7 678.5,-547.7 570.5,-547.7"/>
<image xlink:href="../../images/foreignKeys.png" width="11px" height="12px" preserveAspectRatio="xMinYMin meet" x="575.5" y="-564.7"/>
<text text-anchor="start" x="590.5" y="-554.8" font-family="Helvetica,sans-Serif" font-size="11.00" fill="#000000">user</text>
<polygon fill="none" stroke="#000000" points="570.5,-525.7 570.5,-547.7 678.5,-547.7 678.5,-525.7 570.5,-525.7"/>
<image xlink:href="../../images/foreignKeys.png" width="11px" height="12px" preserveAspectRatio="xMinYMin meet" x="575.5" y="-542.7"/>
<text text-anchor="start" x="590.5" y="-532.8" font-family="Helvetica,sans-Serif" font-size="11.00" fill="#000000">groupname</text>
<polygon fill="none" stroke="#000000" points="570.5,-503.7 570.5,-525.7 678.5,-525.7 678.5,-503.7 570.5,-503.7"/>
<image xlink:href="../../images/foreignKeys.png" width="11px" height="12px" preserveAspectRatio="xMinYMin meet" x="575.5" y="-520.7"/>
<text text-anchor="start" x="590.5" y="-510.8" font-family="Helvetica,sans-Serif" font-size="11.00" fill="#000000">encounter</text>
<polygon fill="none" stroke="#000000" points="570.5,-481.7 570.5,-503.7 678.5,-503.7 678.5,-481.7 570.5,-481.7"/>
<image xlink:href="../../images/foreignKeys.png" width="11px" height="12px" preserveAspectRatio="xMinYMin meet" x="575.5" y="-498.7"/>
<text text-anchor="start" x="590.5" y="-488.8" font-family="Helvetica,sans-Serif" font-size="11.00" fill="#000000">payer_id</text>
<polygon fill="none" stroke="#000000" points="570.5,-459.7 570.5,-481.7 678.5,-481.7 678.5,-459.7 570.5,-459.7"/>
<image xlink:href="../../images/foreignKeys.png" width="11px" height="12px" preserveAspectRatio="xMinYMin meet" x="575.5" y="-476.7"/>
<text text-anchor="start" x="590.5" y="-466.8" font-family="Helvetica,sans-Serif" font-size="11.00" fill="#000000">chargecat</text>
<polygon fill="none" stroke="#000000" points="570.5,-440.7 570.5,-459.7 678.5,-459.7 678.5,-440.7 570.5,-440.7"/>
<text text-anchor="start" x="573.5" y="-446.8" font-family="Helvetica,sans-Serif" font-size="11.00" fill="#000000">...</text>
<polygon fill="#ffffff" stroke="transparent" points="570.5,-421.7 570.5,-440.7 622.5,-440.7 622.5,-421.7 570.5,-421.7"/>
<polygon fill="none" stroke="#000000" points="570.5,-421.7 570.5,-440.7 622.5,-440.7 622.5,-421.7 570.5,-421.7"/>
<text text-anchor="start" x="573.5" y="-427.8" font-family="Helvetica,sans-Serif" font-size="11.00" fill="#000000">&lt; 7</text>
<polygon fill="#ffffff" stroke="transparent" points="622.5,-421.7 622.5,-440.7 650.5,-440.7 650.5,-421.7 622.5,-421.7"/>
<polygon fill="none" stroke="#000000" points="622.5,-421.7 622.5,-440.7 650.5,-440.7 650.5,-421.7 622.5,-421.7"/>
<text text-anchor="start" x="641.3862" y="-427.8" font-family="Helvetica,sans-Serif" font-size="11.00" fill="#000000"> &#160;</text>
<polygon fill="#ffffff" stroke="transparent" points="650.5,-421.7 650.5,-440.7 678.5,-440.7 678.5,-421.7 650.5,-421.7"/>
<polygon fill="none" stroke="#000000" points="650.5,-421.7 650.5,-440.7 678.5,-440.7 678.5,-421.7 650.5,-421.7"/>
<text text-anchor="start" x="669.3862" y="-427.8" font-family="Helvetica,sans-Serif" font-size="11.00" fill="#000000"> &#160;</text>
</a>
</g>
</g>
<!-- billing&#45;&gt;insurance_companies -->
<g id="edge2" class="edge">
<title>billing:w&#45;&gt;insurance_companies:e</title>
<path fill="none" stroke="#000000" d="M555.813,-492.7C518.9716,-492.7 504.6458,-492.7 461.5,-492.7"/>
<polygon fill="#000000" stroke="#000000" points="562.5,-492.7001 570.5,-496.3 566.5,-492.7 570.5,-492.7 570.5,-492.7 570.5,-492.7 566.5,-492.7 570.5,-489.1 562.5,-492.7001 562.5,-492.7001"/>
<ellipse fill="none" stroke="#000000" cx="559.3" cy="-492.7001" rx="3.2" ry="3.2"/>
</g>
<!-- billing&#45;&gt;insurance_companies -->
<g id="edge3" class="edge">
<title>billing:w&#45;&gt;insurance_companies:e</title>
<path fill="none" stroke="#000000" d="M556.0728,-578.862C510.3318,-566.2249 518.4113,-492.7 461.5,-492.7"/>
<polygon fill="#000000" stroke="#000000" points="562.5641,-579.6889 570.045,-584.2711 566.5321,-580.1945 570.5,-580.7 570.5,-580.7 570.5,-580.7 566.5321,-580.1945 570.955,-577.1289 562.5641,-579.6889 562.5641,-579.6889"/>
<ellipse fill="none" stroke="#000000" cx="559.3898" cy="-579.2845" rx="3.2" ry="3.2"/>
</g>
<!-- claims -->
<g id="node4" class="node">
<title>claims</title>
<g id="a_node4"><a xlink:href="../../tables/claims.html" xlink:title="claims" target="_top">
<polygon fill="#ffffff" stroke="transparent" points="564.5,-252.2 564.5,-401.2 684.5,-401.2 684.5,-252.2 564.5,-252.2"/>
<polygon fill="#f5f5f5" stroke="transparent" points="564.5,-377.7 564.5,-400.7 684.5,-400.7 684.5,-377.7 564.5,-377.7"/>
<polygon fill="none" stroke="#000000" points="564.5,-377.7 564.5,-400.7 684.5,-400.7 684.5,-377.7 564.5,-377.7"/>
<text text-anchor="start" x="569.5" y="-386.3" font-family="Helvetica,sans-Serif" font-weight="bold" font-size="11.00" fill="#000000">claims</text>
<text text-anchor="start" x="649.5437" y="-385.8" font-family="Helvetica,sans-Serif" font-size="11.00" fill="#000000">[table]</text>
<polygon fill="none" stroke="#000000" points="564.5,-355.7 564.5,-377.7 684.5,-377.7 684.5,-355.7 564.5,-355.7"/>
<image xlink:href="../../images/primaryKeys.png" width="11px" height="12px" preserveAspectRatio="xMinYMin meet" x="569.5" y="-372.7"/>
<text text-anchor="start" x="584.5" y="-362.8" font-family="Helvetica,sans-Serif" font-size="11.00" fill="#000000">patient_id</text>
<polygon fill="none" stroke="#000000" points="564.5,-333.7 564.5,-355.7 684.5,-355.7 684.5,-333.7 564.5,-333.7"/>
<image xlink:href="../../images/primaryKeys.png" width="11px" height="12px" preserveAspectRatio="xMinYMin meet" x="569.5" y="-350.7"/>
<text text-anchor="start" x="584.5" y="-340.8" font-family="Helvetica,sans-Serif" font-size="11.00" fill="#000000">encounter_id</text>
<polygon fill="none" stroke="#000000" points="564.5,-311.7 564.5,-333.7 684.5,-333.7 684.5,-311.7 564.5,-311.7"/>
<image xlink:href="../../images/primaryKeys.png" width="11px" height="12px" preserveAspectRatio="xMinYMin meet" x="569.5" y="-328.7"/>
<text text-anchor="start" x="584.5" y="-318.8" font-family="Helvetica,sans-Serif" font-size="11.00" fill="#000000">version</text>
<polygon fill="none" stroke="#000000" points="564.5,-289.7 564.5,-311.7 684.5,-311.7 684.5,-289.7 564.5,-289.7"/>
<image xlink:href="../../images/foreignKeys.png" width="11px" height="12px" preserveAspectRatio="xMinYMin meet" x="569.5" y="-306.7"/>
<text text-anchor="start" x="584.5" y="-296.8" font-family="Helvetica,sans-Serif" font-size="11.00" fill="#000000">payer_id</text>
<polygon fill="none" stroke="#000000" points="564.5,-270.7 564.5,-289.7 684.5,-289.7 684.5,-270.7 564.5,-270.7"/>
<text text-anchor="start" x="567.5" y="-276.8" font-family="Helvetica,sans-Serif" font-size="11.00" fill="#000000">...</text>
<polygon fill="#ffffff" stroke="transparent" points="564.5,-251.7 564.5,-270.7 622.5,-270.7 622.5,-251.7 564.5,-251.7"/>
<polygon fill="none" stroke="#000000" points="564.5,-251.7 564.5,-270.7 622.5,-270.7 622.5,-251.7 564.5,-251.7"/>
<text text-anchor="start" x="567.5" y="-257.8" font-family="Helvetica,sans-Serif" font-size="11.00" fill="#000000">&lt; 3</text>
<polygon fill="#ffffff" stroke="transparent" points="622.5,-251.7 622.5,-270.7 653.5,-270.7 653.5,-251.7 622.5,-251.7"/>
<polygon fill="none" stroke="#000000" points="622.5,-251.7 622.5,-270.7 653.5,-270.7 653.5,-251.7 622.5,-251.7"/>
<text text-anchor="start" x="644.3862" y="-257.8" font-family="Helvetica,sans-Serif" font-size="11.00" fill="#000000"> &#160;</text>
<polygon fill="#ffffff" stroke="transparent" points="653.5,-251.7 653.5,-270.7 684.5,-270.7 684.5,-251.7 653.5,-251.7"/>
<polygon fill="none" stroke="#000000" points="653.5,-251.7 653.5,-270.7 684.5,-270.7 684.5,-251.7 653.5,-251.7"/>
<text text-anchor="start" x="675.3862" y="-257.8" font-family="Helvetica,sans-Serif" font-size="11.00" fill="#000000"> &#160;</text>
</a>
</g>
</g>
<!-- claims&#45;&gt;insurance_companies -->
<g id="edge4" class="edge">
<title>claims:w&#45;&gt;insurance_companies:e</title>
<path fill="none" stroke="#000000" d="M550.1633,-302.3899C512.183,-312.5894 527.91,-366.9938 504,-411.7 484.8268,-447.5494 502.1545,-492.7 461.5,-492.7"/>
<polygon fill="#000000" stroke="#000000" points="556.555,-301.6366 564.9215,-304.2752 560.5275,-301.1683 564.5,-300.7 564.5,-300.7 564.5,-300.7 560.5275,-301.1683 564.0785,-297.1248 556.555,-301.6366 556.555,-301.6366"/>
<ellipse fill="none" stroke="#000000" cx="553.377" cy="-302.0112" rx="3.2" ry="3.2"/>
</g>
<!-- insurance_data -->
<g id="node6" class="node">
<title>insurance_data</title>
<g id="a_node6"><a xlink:href="../../tables/insurance_data.html" xlink:title="insurance_data" target="_top">
<polygon fill="#ffffff" stroke="transparent" points="512,-38.2 512,-231.2 737,-231.2 737,-38.2 512,-38.2"/>
<polygon fill="#f5f5f5" stroke="transparent" points="512.5,-207.7 512.5,-230.7 737.5,-230.7 737.5,-207.7 512.5,-207.7"/>
<polygon fill="none" stroke="#000000" points="512.5,-207.7 512.5,-230.7 737.5,-230.7 737.5,-207.7 512.5,-207.7"/>
<text text-anchor="start" x="517.5" y="-216.3" font-family="Helvetica,sans-Serif" font-weight="bold" font-size="11.00" fill="#000000">insurance_data</text>
<text text-anchor="start" x="702.5437" y="-215.8" font-family="Helvetica,sans-Serif" font-size="11.00" fill="#000000">[table]</text>
<polygon fill="none" stroke="#000000" points="512.5,-185.7 512.5,-207.7 737.5,-207.7 737.5,-185.7 512.5,-185.7"/>
<image xlink:href="../../images/primaryKeys.png" width="11px" height="12px" preserveAspectRatio="xMinYMin meet" x="517.5" y="-202.7"/>
<text text-anchor="start" x="532.5" y="-192.8" font-family="Helvetica,sans-Serif" font-size="11.00" fill="#000000">id</text>
<polygon fill="#ffffff" stroke="transparent" points="512.5,-163.7 512.5,-185.7 737.5,-185.7 737.5,-163.7 512.5,-163.7"/>
<polygon fill="none" stroke="#000000" points="512.5,-163.7 512.5,-185.7 737.5,-185.7 737.5,-163.7 512.5,-163.7"/>
<text text-anchor="start" x="532.5" y="-170.8" font-family="Helvetica,sans-Serif" font-size="11.00" fill="#000000">uuid</text>
<polygon fill="#ffffff" stroke="transparent" points="512.5,-141.7 512.5,-163.7 737.5,-163.7 737.5,-141.7 512.5,-141.7"/>
<polygon fill="none" stroke="#000000" points="512.5,-141.7 512.5,-163.7 737.5,-163.7 737.5,-141.7 512.5,-141.7"/>
<text text-anchor="start" x="532.5" y="-148.8" font-family="Helvetica,sans-Serif" font-size="11.00" fill="#000000">type</text>
<polygon fill="none" stroke="#000000" points="512.5,-119.7 512.5,-141.7 737.5,-141.7 737.5,-119.7 512.5,-119.7"/>
<image xlink:href="../../images/foreignKeys.png" width="11px" height="12px" preserveAspectRatio="xMinYMin meet" x="517.5" y="-136.7"/>
<text text-anchor="start" x="532.5" y="-126.8" font-family="Helvetica,sans-Serif" font-size="11.00" fill="#000000">provider</text>
<polygon fill="#ffffff" stroke="transparent" points="512.5,-97.7 512.5,-119.7 737.5,-119.7 737.5,-97.7 512.5,-97.7"/>
<polygon fill="none" stroke="#000000" points="512.5,-97.7 512.5,-119.7 737.5,-119.7 737.5,-97.7 512.5,-97.7"/>
<text text-anchor="start" x="532.5" y="-104.8" font-family="Helvetica,sans-Serif" font-size="11.00" fill="#000000">date</text>
<polygon fill="#ffffff" stroke="transparent" points="512.5,-75.7 512.5,-97.7 737.5,-97.7 737.5,-75.7 512.5,-75.7"/>
<polygon fill="none" stroke="#000000" points="512.5,-75.7 512.5,-97.7 737.5,-97.7 737.5,-75.7 512.5,-75.7"/>
<image xlink:href="../../images/foreignKeys.png" width="11px" height="12px" preserveAspectRatio="xMinYMin meet" x="517.5" y="-92.7"/>
<text text-anchor="start" x="532.5" y="-82.8" font-family="Helvetica,sans-Serif" font-size="11.00" fill="#000000">pid</text>
<polygon fill="none" stroke="#000000" points="512.5,-56.7 512.5,-75.7 737.5,-75.7 737.5,-56.7 512.5,-56.7"/>
<text text-anchor="start" x="515.5" y="-62.8" font-family="Helvetica,sans-Serif" font-size="11.00" fill="#000000">...</text>
<polygon fill="#ffffff" stroke="transparent" points="512.5,-37.7 512.5,-56.7 618.5,-56.7 618.5,-37.7 512.5,-37.7"/>
<polygon fill="none" stroke="#000000" points="512.5,-37.7 512.5,-56.7 618.5,-56.7 618.5,-37.7 512.5,-37.7"/>
<text text-anchor="start" x="515.5" y="-43.8" font-family="Helvetica,sans-Serif" font-size="11.00" fill="#000000">&lt; 2</text>
<polygon fill="#ffffff" stroke="transparent" points="618.5,-37.7 618.5,-56.7 673.5,-56.7 673.5,-37.7 618.5,-37.7"/>
<polygon fill="none" stroke="#000000" points="618.5,-37.7 618.5,-56.7 673.5,-56.7 673.5,-37.7 618.5,-37.7"/>
<text text-anchor="start" x="664.3862" y="-43.8" font-family="Helvetica,sans-Serif" font-size="11.00" fill="#000000"> &#160;</text>
<polygon fill="#ffffff" stroke="transparent" points="673.5,-37.7 673.5,-56.7 737.5,-56.7 737.5,-37.7 673.5,-37.7"/>
<polygon fill="none" stroke="#000000" points="673.5,-37.7 673.5,-56.7 737.5,-56.7 737.5,-37.7 673.5,-37.7"/>
<text text-anchor="start" x="718.9053" y="-43.8" font-family="Helvetica,sans-Serif" font-size="11.00" fill="#000000">1 &gt;</text>
</a>
</g>
</g>
<!-- insurance_data&#45;&gt;insurance_companies -->
<g id="edge6" class="edge">
<title>insurance_data:w&#45;&gt;insurance_companies:e</title>
<path fill="none" stroke="#000000" d="M498.7523,-135.277C445.2169,-177.1818 537.3441,-492.7 461.5,-492.7"/>
<polygon fill="#000000" stroke="#000000" points="504.9096,-133.2271 513.6372,-134.1157 508.7048,-131.9636 512.5,-130.7 512.5,-130.7 512.5,-130.7 508.7048,-131.9636 511.3628,-127.2843 504.9096,-133.2271 504.9096,-133.2271"/>
<ellipse fill="none" stroke="#000000" cx="501.8735" cy="-134.238" rx="3.2" ry="3.2"/>
</g>
</g>
</svg>
