<?xml version="1.0" encoding="UTF-8" standalone="no"?>
<!DOCTYPE svg PUBLIC "-//W3C//DTD SVG 1.1//EN"
 "http://www.w3.org/Graphics/SVG/1.1/DTD/svg11.dtd">
<!-- Generated by graphviz version 2.40.1 (20161225.0304)
 -->
<!-- Title: oneDegreeRelationshipsDiagram Pages: 1 -->
<svg width="713pt" height="511pt"
 viewBox="0.00 0.00 713.00 510.98" xmlns="http://www.w3.org/2000/svg" xmlns:xlink="http://www.w3.org/1999/xlink">
<g id="graph0" class="graph" transform="scale(1 1) rotate(0) translate(4 506.9836)">
<title>oneDegreeRelationshipsDiagram</title>
<polygon fill="#ffffff" stroke="transparent" points="-4,4 -4,-506.9836 709,-506.9836 709,4 -4,4"/>
<text text-anchor="middle" x="72.4936" y="-7.3" font-family="Helvetica,sans-Serif" font-size="11.00" fill="#000000">Generated by SchemaSpy</text>
<!-- patient_data -->
<g id="node1" class="node">
<title>patient_data</title>
<g id="a_node1"><a xlink:href="../../tables/patient_data.html" xlink:title="patient_data" target="_top">
<polygon fill="#ffffff" stroke="transparent" points="207,-49.2 207,-440.2 455,-440.2 455,-49.2 207,-49.2"/>
<polygon fill="#f5f5f5" stroke="transparent" points="207,-416.7 207,-439.7 455,-439.7 455,-416.7 207,-416.7"/>
<polygon fill="none" stroke="#000000" points="207,-416.7 207,-439.7 455,-439.7 455,-416.7 207,-416.7"/>
<text text-anchor="start" x="212" y="-425.3" font-family="Helvetica,sans-Serif" font-weight="bold" font-size="11.00" fill="#000000">patient_data</text>
<text text-anchor="start" x="420.0437" y="-424.8" font-family="Helvetica,sans-Serif" font-size="11.00" fill="#000000">[table]</text>
<polygon fill="none" stroke="#000000" points="207,-394.7 207,-416.7 455,-416.7 455,-394.7 207,-394.7"/>
<image xlink:href="../../images/primaryKeys.png" width="11px" height="12px" preserveAspectRatio="xMinYMin meet" x="212" y="-411.7"/>
<text text-anchor="start" x="227" y="-401.8" font-family="Helvetica,sans-Serif" font-size="11.00" fill="#000000">id</text>
<polygon fill="#ffffff" stroke="transparent" points="207,-372.7 207,-394.7 455,-394.7 455,-372.7 207,-372.7"/>
<polygon fill="none" stroke="#000000" points="207,-372.7 207,-394.7 455,-394.7 455,-372.7 207,-372.7"/>
<text text-anchor="start" x="227" y="-379.8" font-family="Helvetica,sans-Serif" font-size="11.00" fill="#000000">uuid</text>
<polygon fill="#ffffff" stroke="transparent" points="207,-350.7 207,-372.7 455,-372.7 455,-350.7 207,-350.7"/>
<polygon fill="none" stroke="#000000" points="207,-350.7 207,-372.7 455,-372.7 455,-350.7 207,-350.7"/>
<text text-anchor="start" x="227" y="-357.8" font-family="Helvetica,sans-Serif" font-size="11.00" fill="#000000">fname</text>
<polygon fill="#ffffff" stroke="transparent" points="207,-328.7 207,-350.7 455,-350.7 455,-328.7 207,-328.7"/>
<polygon fill="none" stroke="#000000" points="207,-328.7 207,-350.7 455,-350.7 455,-328.7 207,-328.7"/>
<text text-anchor="start" x="227" y="-335.8" font-family="Helvetica,sans-Serif" font-size="11.00" fill="#000000">lname</text>
<polygon fill="#ffffff" stroke="transparent" points="207,-306.7 207,-328.7 455,-328.7 455,-306.7 207,-306.7"/>
<polygon fill="none" stroke="#000000" points="207,-306.7 207,-328.7 455,-328.7 455,-306.7 207,-306.7"/>
<text text-anchor="start" x="227" y="-313.8" font-family="Helvetica,sans-Serif" font-size="11.00" fill="#000000">DOB</text>
<polygon fill="none" stroke="#000000" points="207,-284.7 207,-306.7 455,-306.7 455,-284.7 207,-284.7"/>
<image xlink:href="../../images/foreignKeys.png" width="11px" height="12px" preserveAspectRatio="xMinYMin meet" x="212" y="-301.7"/>
<text text-anchor="start" x="227" y="-291.8" font-family="Helvetica,sans-Serif" font-size="11.00" fill="#000000">pharmacy_id</text>
<polygon fill="none" stroke="#000000" points="207,-262.7 207,-284.7 455,-284.7 455,-262.7 207,-262.7"/>
<image xlink:href="../../images/foreignKeys.png" width="11px" height="12px" preserveAspectRatio="xMinYMin meet" x="212" y="-279.7"/>
<text text-anchor="start" x="227" y="-269.8" font-family="Helvetica,sans-Serif" font-size="11.00" fill="#000000">providerID</text>
<polygon fill="none" stroke="#000000" points="207,-240.7 207,-262.7 455,-262.7 455,-240.7 207,-240.7"/>
<image xlink:href="../../images/foreignKeys.png" width="11px" height="12px" preserveAspectRatio="xMinYMin meet" x="212" y="-257.7"/>
<text text-anchor="start" x="227" y="-247.8" font-family="Helvetica,sans-Serif" font-size="11.00" fill="#000000">ref_providerID</text>
<polygon fill="none" stroke="#000000" points="207,-218.7 207,-240.7 455,-240.7 455,-218.7 207,-218.7"/>
<image xlink:href="../../images/foreignKeys.png" width="11px" height="12px" preserveAspectRatio="xMinYMin meet" x="212" y="-235.7"/>
<text text-anchor="start" x="227" y="-225.8" font-family="Helvetica,sans-Serif" font-size="11.00" fill="#000000">interpreter_needed</text>
<polygon fill="none" stroke="#000000" points="207,-196.7 207,-218.7 455,-218.7 455,-196.7 207,-196.7"/>
<image xlink:href="../../images/primaryKeys.png" width="11px" height="12px" preserveAspectRatio="xMinYMin meet" x="212" y="-213.7"/>
<text text-anchor="start" x="227" y="-203.8" font-family="Helvetica,sans-Serif" font-size="11.00" fill="#000000">pid</text>
<polygon fill="none" stroke="#000000" points="207,-174.7 207,-196.7 455,-196.7 455,-174.7 207,-174.7"/>
<image xlink:href="../../images/foreignKeys.png" width="11px" height="12px" preserveAspectRatio="xMinYMin meet" x="212" y="-191.7"/>
<text text-anchor="start" x="227" y="-181.8" font-family="Helvetica,sans-Serif" font-size="11.00" fill="#000000">advance_directive_user_authenticator</text>
<polygon fill="none" stroke="#000000" points="207,-152.7 207,-174.7 455,-174.7 455,-152.7 207,-152.7"/>
<image xlink:href="../../images/foreignKeys.png" width="11px" height="12px" preserveAspectRatio="xMinYMin meet" x="212" y="-169.7"/>
<text text-anchor="start" x="227" y="-159.8" font-family="Helvetica,sans-Serif" font-size="11.00" fill="#000000">created_by</text>
<polygon fill="none" stroke="#000000" points="207,-130.7 207,-152.7 455,-152.7 455,-130.7 207,-130.7"/>
<image xlink:href="../../images/foreignKeys.png" width="11px" height="12px" preserveAspectRatio="xMinYMin meet" x="212" y="-147.7"/>
<text text-anchor="start" x="227" y="-137.8" font-family="Helvetica,sans-Serif" font-size="11.00" fill="#000000">updated_by</text>
<polygon fill="none" stroke="#000000" points="207,-108.7 207,-130.7 455,-130.7 455,-108.7 207,-108.7"/>
<image xlink:href="../../images/foreignKeys.png" width="11px" height="12px" preserveAspectRatio="xMinYMin meet" x="212" y="-125.7"/>
<text text-anchor="start" x="227" y="-115.8" font-family="Helvetica,sans-Serif" font-size="11.00" fill="#000000">tribal_affiliations</text>
<polygon fill="none" stroke="#000000" points="207,-86.7 207,-108.7 455,-108.7 455,-86.7 207,-86.7"/>
<image xlink:href="../../images/foreignKeys.png" width="11px" height="12px" preserveAspectRatio="xMinYMin meet" x="212" y="-103.7"/>
<text text-anchor="start" x="227" y="-93.8" font-family="Helvetica,sans-Serif" font-size="11.00" fill="#000000">sex_identified</text>
<polygon fill="none" stroke="#000000" points="207,-67.7 207,-86.7 455,-86.7 455,-67.7 207,-67.7"/>
<text text-anchor="start" x="210" y="-73.8" font-family="Helvetica,sans-Serif" font-size="11.00" fill="#000000">...</text>
<polygon fill="#ffffff" stroke="transparent" points="207,-48.7 207,-67.7 322,-67.7 322,-48.7 207,-48.7"/>
<polygon fill="none" stroke="#000000" points="207,-48.7 207,-67.7 322,-67.7 322,-48.7 207,-48.7"/>
<text text-anchor="start" x="210" y="-54.8" font-family="Helvetica,sans-Serif" font-size="11.00" fill="#000000">&lt; 9</text>
<polygon fill="#ffffff" stroke="transparent" points="322,-48.7 322,-67.7 381,-67.7 381,-48.7 322,-48.7"/>
<polygon fill="none" stroke="#000000" points="322,-48.7 322,-67.7 381,-67.7 381,-48.7 322,-48.7"/>
<text text-anchor="start" x="371.8862" y="-54.8" font-family="Helvetica,sans-Serif" font-size="11.00" fill="#000000"> &#160;</text>
<polygon fill="#ffffff" stroke="transparent" points="381,-48.7 381,-67.7 455,-67.7 455,-48.7 381,-48.7"/>
<polygon fill="none" stroke="#000000" points="381,-48.7 381,-67.7 455,-67.7 455,-48.7 381,-48.7"/>
<text text-anchor="start" x="430.2904" y="-54.8" font-family="Helvetica,sans-Serif" font-size="11.00" fill="#000000">95 &gt;</text>
</a>
</g>
</g>
<!-- users -->
<g id="node2" class="node">
<title>users</title>
<g id="a_node2"><a xlink:href="../../tables/users.html" xlink:title="users" target="_top">
<polygon fill="#ffffff" stroke="transparent" points="8,-38.2 8,-253.2 158,-253.2 158,-38.2 8,-38.2"/>
<polygon fill="#f5f5f5" stroke="transparent" points="8,-229.7 8,-252.7 158,-252.7 158,-229.7 8,-229.7"/>
<polygon fill="none" stroke="#000000" points="8,-229.7 8,-252.7 158,-252.7 158,-229.7 8,-229.7"/>
<text text-anchor="start" x="13" y="-238.3" font-family="Helvetica,sans-Serif" font-weight="bold" font-size="11.00" fill="#000000">users</text>
<text text-anchor="start" x="123.0437" y="-237.8" font-family="Helvetica,sans-Serif" font-size="11.00" fill="#000000">[table]</text>
<polygon fill="none" stroke="#000000" points="8,-207.7 8,-229.7 158,-229.7 158,-207.7 8,-207.7"/>
<image xlink:href="../../images/primaryKeys.png" width="11px" height="12px" preserveAspectRatio="xMinYMin meet" x="13" y="-224.7"/>
<text text-anchor="start" x="28" y="-214.8" font-family="Helvetica,sans-Serif" font-size="11.00" fill="#000000">id</text>
<polygon fill="#ffffff" stroke="transparent" points="8,-185.7 8,-207.7 158,-207.7 158,-185.7 8,-185.7"/>
<polygon fill="none" stroke="#000000" points="8,-185.7 8,-207.7 158,-207.7 158,-185.7 8,-185.7"/>
<text text-anchor="start" x="28" y="-192.8" font-family="Helvetica,sans-Serif" font-size="11.00" fill="#000000">uuid</text>
<polygon fill="none" stroke="#000000" points="8,-163.7 8,-185.7 158,-185.7 158,-163.7 8,-163.7"/>
<image xlink:href="../../images/primaryKeys.png" width="11px" height="12px" preserveAspectRatio="xMinYMin meet" x="13" y="-180.7"/>
<text text-anchor="start" x="28" y="-170.8" font-family="Helvetica,sans-Serif" font-size="11.00" fill="#000000">username</text>
<polygon fill="none" stroke="#000000" points="8,-141.7 8,-163.7 158,-163.7 158,-141.7 8,-141.7"/>
<image xlink:href="../../images/foreignKeys.png" width="11px" height="12px" preserveAspectRatio="xMinYMin meet" x="13" y="-158.7"/>
<text text-anchor="start" x="28" y="-148.8" font-family="Helvetica,sans-Serif" font-size="11.00" fill="#000000">facility_id</text>
<polygon fill="#ffffff" stroke="transparent" points="8,-119.7 8,-141.7 158,-141.7 158,-119.7 8,-119.7"/>
<polygon fill="none" stroke="#000000" points="8,-119.7 8,-141.7 158,-141.7 158,-119.7 8,-119.7"/>
<text text-anchor="start" x="28" y="-126.8" font-family="Helvetica,sans-Serif" font-size="11.00" fill="#000000">google_signin_email</text>
<polygon fill="#ffffff" stroke="transparent" points="8,-97.7 8,-119.7 158,-119.7 158,-97.7 8,-97.7"/>
<polygon fill="none" stroke="#000000" points="8,-97.7 8,-119.7 158,-119.7 158,-97.7 8,-97.7"/>
<text text-anchor="start" x="28" y="-104.8" font-family="Helvetica,sans-Serif" font-size="11.00" fill="#000000">abook_type</text>
<polygon fill="none" stroke="#000000" points="8,-75.7 8,-97.7 158,-97.7 158,-75.7 8,-75.7"/>
<image xlink:href="../../images/foreignKeys.png" width="11px" height="12px" preserveAspectRatio="xMinYMin meet" x="13" y="-92.7"/>
<text text-anchor="start" x="28" y="-82.8" font-family="Helvetica,sans-Serif" font-size="11.00" fill="#000000">billing_facility_id</text>
<polygon fill="none" stroke="#000000" points="8,-56.7 8,-75.7 158,-75.7 158,-56.7 8,-56.7"/>
<text text-anchor="start" x="11" y="-62.8" font-family="Helvetica,sans-Serif" font-size="11.00" fill="#000000">...</text>
<polygon fill="#ffffff" stroke="transparent" points="8,-37.7 8,-56.7 74,-56.7 74,-37.7 8,-37.7"/>
<polygon fill="none" stroke="#000000" points="8,-37.7 8,-56.7 74,-56.7 74,-37.7 8,-37.7"/>
<text text-anchor="start" x="11" y="-43.8" font-family="Helvetica,sans-Serif" font-size="11.00" fill="#000000">&lt; 2</text>
<polygon fill="#ffffff" stroke="transparent" points="74,-37.7 74,-56.7 108,-56.7 108,-37.7 74,-37.7"/>
<polygon fill="none" stroke="#000000" points="74,-37.7 74,-56.7 108,-56.7 108,-37.7 74,-37.7"/>
<text text-anchor="start" x="98.8862" y="-43.8" font-family="Helvetica,sans-Serif" font-size="11.00" fill="#000000"> &#160;</text>
<polygon fill="#ffffff" stroke="transparent" points="108,-37.7 108,-56.7 158,-56.7 158,-37.7 108,-37.7"/>
<polygon fill="none" stroke="#000000" points="108,-37.7 108,-56.7 158,-56.7 158,-37.7 108,-37.7"/>
<text text-anchor="start" x="133.2904" y="-43.8" font-family="Helvetica,sans-Serif" font-size="11.00" fill="#000000">90 &gt;</text>
</a>
</g>
</g>
<!-- patient_data&#45;&gt;users -->
<g id="edge1" class="edge">
<title>patient_data:w&#45;&gt;users:e</title>
<path fill="none" stroke="#000000" d="M193.0457,-190.0142C180.8073,-198.9592 178.3075,-218.7 158,-218.7"/>
<polygon fill="#000000" stroke="#000000" points="199.3569,-188.063 208.0634,-189.1394 203.1785,-186.8815 207,-185.7 207,-185.7 207,-185.7 203.1785,-186.8815 205.9366,-182.2606 199.3569,-188.063 199.3569,-188.063"/>
<ellipse fill="none" stroke="#000000" cx="196.2997" cy="-189.0082" rx="3.2" ry="3.2"/>
</g>
<!-- patient_data&#45;&gt;users -->
<g id="edge2" class="edge">
<title>patient_data:w&#45;&gt;users:e</title>
<path fill="none" stroke="#000000" d="M193.1265,-168.7757C178.7102,-182.3914 184.5999,-218.7 158,-218.7"/>
<polygon fill="#000000" stroke="#000000" points="199.487,-166.4487 208.2369,-167.0808 203.2435,-165.0743 207,-163.7 207,-163.7 207,-163.7 203.2435,-165.0743 205.7631,-160.3192 199.487,-166.4487 199.487,-166.4487"/>
<ellipse fill="none" stroke="#000000" cx="196.4818" cy="-167.5482" rx="3.2" ry="3.2"/>
</g>
<!-- patient_data&#45;&gt;users -->
<g id="edge3" class="edge">
<title>patient_data:w&#45;&gt;users:e</title>
<path fill="none" stroke="#000000" d="M193.1265,-268.6243C178.7102,-255.0086 184.5999,-218.7 158,-218.7"/>
<polygon fill="#000000" stroke="#000000" points="199.487,-270.9513 205.7631,-277.0808 203.2435,-272.3257 207,-273.7 207,-273.7 207,-273.7 203.2435,-272.3257 208.2369,-270.3192 199.487,-270.9513 199.487,-270.9513"/>
<ellipse fill="none" stroke="#000000" cx="196.4818" cy="-269.8518" rx="3.2" ry="3.2"/>
</g>
<!-- patient_data&#45;&gt;users -->
<g id="edge4" class="edge">
<title>patient_data:w&#45;&gt;users:e</title>
<path fill="none" stroke="#000000" d="M193.0457,-247.3858C180.8073,-238.4408 178.3075,-218.7 158,-218.7"/>
<polygon fill="#000000" stroke="#000000" points="199.3569,-249.337 205.9366,-255.1394 203.1785,-250.5185 207,-251.7 207,-251.7 207,-251.7 203.1785,-250.5185 208.0634,-248.2606 199.3569,-249.337 199.3569,-249.337"/>
<ellipse fill="none" stroke="#000000" cx="196.2997" cy="-248.3918" rx="3.2" ry="3.2"/>
</g>
<!-- patient_data&#45;&gt;users -->
<g id="edge5" class="edge">
<title>patient_data:w&#45;&gt;users:e</title>
<path fill="none" stroke="#000000" d="M193.2659,-146.2861C174.3724,-162.8628 192.5427,-218.7 158,-218.7"/>
<polygon fill="#000000" stroke="#000000" points="199.4119,-144.2339 208.1402,-145.1147 203.2059,-142.9669 207,-141.7 207,-141.7 207,-141.7 203.2059,-142.9669 205.8598,-138.2853 199.4119,-144.2339 199.4119,-144.2339"/>
<ellipse fill="none" stroke="#000000" cx="196.3766" cy="-145.2474" rx="3.2" ry="3.2"/>
</g>
<!-- pro_assessments -->
<g id="node3" class="node">
<title>pro_assessments</title>
<g id="a_node3"><a xlink:href="../../tables/pro_assessments.html" xlink:title="pro_assessments" target="_top">
<polygon fill="#ffffff" stroke="transparent" points="504,-149.7 504,-459.7 697,-459.7 697,-149.7 504,-149.7"/>
<polygon fill="#f5f5f5" stroke="transparent" points="506.5,-434.7 506.5,-457.7 695.5,-457.7 695.5,-434.7 506.5,-434.7"/>
<polygon fill="none" stroke="#000000" points="506.5,-434.7 506.5,-457.7 695.5,-457.7 695.5,-434.7 506.5,-434.7"/>
<text text-anchor="start" x="511.5" y="-443.3" font-family="Helvetica,sans-Serif" font-weight="bold" font-size="11.00" fill="#000000">pro_assessments</text>
<text text-anchor="start" x="660.5437" y="-442.8" font-family="Helvetica,sans-Serif" font-size="11.00" fill="#000000">[table]</text>
<polygon fill="none" stroke="#000000" points="506.5,-412.7 506.5,-434.7 628.5,-434.7 628.5,-412.7 506.5,-412.7"/>
<image xlink:href="../../images/primaryKeys.png" width="11px" height="12px" preserveAspectRatio="xMinYMin meet" x="511.5" y="-429.7"/>
<text text-anchor="start" x="526.5" y="-419.8" font-family="Helvetica,sans-Serif" font-size="11.00" fill="#000000">id</text>
<polygon fill="none" stroke="#000000" points="628.5,-412.7 628.5,-434.7 695.5,-434.7 695.5,-412.7 628.5,-412.7"/>
<text text-anchor="start" x="631.5" y="-420.4" font-family="Helvetica,sans-Serif" font-size="11.00" fill="#000000">int[10]</text>
<polygon fill="none" stroke="#000000" points="506.5,-390.7 506.5,-412.7 628.5,-412.7 628.5,-390.7 506.5,-390.7"/>
<text text-anchor="start" x="526.5" y="-397.8" font-family="Helvetica,sans-Serif" font-size="11.00" fill="#000000">form_oid</text>
<polygon fill="none" stroke="#000000" points="628.5,-390.7 628.5,-412.7 695.5,-412.7 695.5,-390.7 628.5,-390.7"/>
<text text-anchor="start" x="631.4365" y="-398.4" font-family="Helvetica,sans-Serif" font-size="11.00" fill="#000000">varchar[255]</text>
<polygon fill="none" stroke="#000000" points="506.5,-368.7 506.5,-390.7 628.5,-390.7 628.5,-368.7 506.5,-368.7"/>
<text text-anchor="start" x="526.5" y="-375.8" font-family="Helvetica,sans-Serif" font-size="11.00" fill="#000000">form_name</text>
<polygon fill="none" stroke="#000000" points="628.5,-368.7 628.5,-390.7 695.5,-390.7 695.5,-368.7 628.5,-368.7"/>
<text text-anchor="start" x="631.4365" y="-376.4" font-family="Helvetica,sans-Serif" font-size="11.00" fill="#000000">varchar[255]</text>
<polygon fill="none" stroke="#000000" points="506.5,-346.7 506.5,-368.7 628.5,-368.7 628.5,-346.7 506.5,-346.7"/>
<image xlink:href="../../images/foreignKeys.png" width="11px" height="12px" preserveAspectRatio="xMinYMin meet" x="511.5" y="-363.7"/>
<text text-anchor="start" x="526.5" y="-353.8" font-family="Helvetica,sans-Serif" font-size="11.00" fill="#000000">user_id</text>
<polygon fill="none" stroke="#000000" points="628.5,-346.7 628.5,-368.7 695.5,-368.7 695.5,-346.7 628.5,-346.7"/>
<text text-anchor="start" x="631.5" y="-354.4" font-family="Helvetica,sans-Serif" font-size="11.00" fill="#000000">int[10]</text>
<polygon fill="none" stroke="#000000" points="506.5,-324.7 506.5,-346.7 628.5,-346.7 628.5,-324.7 506.5,-324.7"/>
<text text-anchor="start" x="526.5" y="-331.8" font-family="Helvetica,sans-Serif" font-size="11.00" fill="#000000">deadline</text>
<polygon fill="none" stroke="#000000" points="628.5,-324.7 628.5,-346.7 695.5,-346.7 695.5,-324.7 628.5,-324.7"/>
<text text-anchor="start" x="631.5" y="-332.4" font-family="Helvetica,sans-Serif" font-size="11.00" fill="#000000">datetime[19]</text>
<polygon fill="none" stroke="#000000" points="506.5,-302.7 506.5,-324.7 628.5,-324.7 628.5,-302.7 506.5,-302.7"/>
<image xlink:href="../../images/foreignKeys.png" width="11px" height="12px" preserveAspectRatio="xMinYMin meet" x="511.5" y="-319.7"/>
<text text-anchor="start" x="526.5" y="-309.8" font-family="Helvetica,sans-Serif" font-size="11.00" fill="#000000">patient_id</text>
<polygon fill="none" stroke="#000000" points="628.5,-302.7 628.5,-324.7 695.5,-324.7 695.5,-302.7 628.5,-302.7"/>
<text text-anchor="start" x="631.5" y="-310.4" font-family="Helvetica,sans-Serif" font-size="11.00" fill="#000000">int[10]</text>
<polygon fill="none" stroke="#000000" points="506.5,-280.7 506.5,-302.7 628.5,-302.7 628.5,-280.7 506.5,-280.7"/>
<text text-anchor="start" x="526.5" y="-287.8" font-family="Helvetica,sans-Serif" font-size="11.00" fill="#000000">assessment_oid</text>
<polygon fill="none" stroke="#000000" points="628.5,-280.7 628.5,-302.7 695.5,-302.7 695.5,-280.7 628.5,-280.7"/>
<text text-anchor="start" x="631.4365" y="-288.4" font-family="Helvetica,sans-Serif" font-size="11.00" fill="#000000">varchar[255]</text>
<polygon fill="none" stroke="#000000" points="506.5,-258.7 506.5,-280.7 628.5,-280.7 628.5,-258.7 506.5,-258.7"/>
<text text-anchor="start" x="526.5" y="-265.8" font-family="Helvetica,sans-Serif" font-size="11.00" fill="#000000">status</text>
<polygon fill="none" stroke="#000000" points="628.5,-258.7 628.5,-280.7 695.5,-280.7 695.5,-258.7 628.5,-258.7"/>
<text text-anchor="start" x="631.4365" y="-266.4" font-family="Helvetica,sans-Serif" font-size="11.00" fill="#000000">varchar[255]</text>
<polygon fill="none" stroke="#000000" points="506.5,-236.7 506.5,-258.7 628.5,-258.7 628.5,-236.7 506.5,-236.7"/>
<text text-anchor="start" x="526.5" y="-243.8" font-family="Helvetica,sans-Serif" font-size="11.00" fill="#000000">score</text>
<polygon fill="none" stroke="#000000" points="628.5,-236.7 628.5,-258.7 695.5,-258.7 695.5,-236.7 628.5,-236.7"/>
<text text-anchor="start" x="631.5" y="-244.4" font-family="Helvetica,sans-Serif" font-size="11.00" fill="#000000">double[22]</text>
<polygon fill="none" stroke="#000000" points="506.5,-214.7 506.5,-236.7 628.5,-236.7 628.5,-214.7 506.5,-214.7"/>
<text text-anchor="start" x="526.5" y="-221.8" font-family="Helvetica,sans-Serif" font-size="11.00" fill="#000000">error</text>
<polygon fill="none" stroke="#000000" points="628.5,-214.7 628.5,-236.7 695.5,-236.7 695.5,-214.7 628.5,-214.7"/>
<text text-anchor="start" x="631.5" y="-222.4" font-family="Helvetica,sans-Serif" font-size="11.00" fill="#000000">double[22]</text>
<polygon fill="none" stroke="#000000" points="506.5,-192.7 506.5,-214.7 628.5,-214.7 628.5,-192.7 506.5,-192.7"/>
<text text-anchor="start" x="526.5" y="-199.8" font-family="Helvetica,sans-Serif" font-size="11.00" fill="#000000">created_at</text>
<polygon fill="none" stroke="#000000" points="628.5,-192.7 628.5,-214.7 695.5,-214.7 695.5,-192.7 628.5,-192.7"/>
<text text-anchor="start" x="631.5" y="-200.4" font-family="Helvetica,sans-Serif" font-size="11.00" fill="#000000">datetime[19]</text>
<polygon fill="none" stroke="#000000" points="506.5,-170.7 506.5,-192.7 628.5,-192.7 628.5,-170.7 506.5,-170.7"/>
<text text-anchor="start" x="526.5" y="-177.8" font-family="Helvetica,sans-Serif" font-size="11.00" fill="#000000">updated_at</text>
<polygon fill="none" stroke="#000000" points="628.5,-170.7 628.5,-192.7 695.5,-192.7 695.5,-170.7 628.5,-170.7"/>
<text text-anchor="start" x="631.5" y="-178.4" font-family="Helvetica,sans-Serif" font-size="11.00" fill="#000000">datetime[19]</text>
<polygon fill="#ffffff" stroke="transparent" points="506.5,-151.7 506.5,-170.7 571.5,-170.7 571.5,-151.7 506.5,-151.7"/>
<polygon fill="none" stroke="#000000" points="506.5,-151.7 506.5,-170.7 571.5,-170.7 571.5,-151.7 506.5,-151.7"/>
<text text-anchor="start" x="509.5" y="-157.8" font-family="Helvetica,sans-Serif" font-size="11.00" fill="#000000">&lt; 2</text>
<polygon fill="#ffffff" stroke="transparent" points="571.5,-151.7 571.5,-170.7 628.5,-170.7 628.5,-151.7 571.5,-151.7"/>
<polygon fill="none" stroke="#000000" points="571.5,-151.7 571.5,-170.7 628.5,-170.7 628.5,-151.7 571.5,-151.7"/>
<text text-anchor="start" x="619.3862" y="-157.8" font-family="Helvetica,sans-Serif" font-size="11.00" fill="#000000"> &#160;</text>
<polygon fill="#ffffff" stroke="transparent" points="628.5,-151.7 628.5,-170.7 695.5,-170.7 695.5,-151.7 628.5,-151.7"/>
<polygon fill="none" stroke="#000000" points="628.5,-151.7 628.5,-170.7 695.5,-170.7 695.5,-151.7 628.5,-151.7"/>
<text text-anchor="start" x="676.9053" y="-157.8" font-family="Helvetica,sans-Serif" font-size="11.00" fill="#000000">0 &gt;</text>
<polygon fill="none" stroke="#000000" stroke-width="2" points="505,-150.7 505,-458.7 696,-458.7 696,-150.7 505,-150.7"/>
</a>
</g>
</g>
<!-- pro_assessments&#45;&gt;patient_data -->
<g id="edge6" class="edge">
<title>pro_assessments:w&#45;&gt;patient_data:e</title>
<path fill="none" stroke="#000000" d="M492.4594,-309.9274C464.8328,-291.0446 501.4437,-207.7 455,-207.7"/>
<polygon fill="#000000" stroke="#000000" points="498.774,-311.624 505.5658,-317.1767 502.637,-312.662 506.5,-313.7 506.5,-313.7 506.5,-313.7 502.637,-312.662 507.4342,-310.2233 498.774,-311.624 498.774,-311.624"/>
<ellipse fill="none" stroke="#000000" cx="495.6836" cy="-310.7937" rx="3.2" ry="3.2"/>
</g>
<!-- pro_assessments&#45;&gt;users -->
<g id="edge7" class="edge">
<title>pro_assessments:w&#45;&gt;users:e</title>
<path fill="none" stroke="#000000" d="M492.4961,-361.0615C470.2654,-375.1203 496.3863,-429.4582 463,-450.7 364.005,-513.6849 288.8971,-526.1031 199,-450.7 118.7754,-383.4099 262.7089,-218.7 158,-218.7"/>
<polygon fill="#000000" stroke="#000000" points="498.721,-359.5673 507.3403,-361.2006 502.6105,-358.6337 506.5,-357.7 506.5,-357.7 506.5,-357.7 502.6105,-358.6337 505.6597,-354.1994 498.721,-359.5673 498.721,-359.5673"/>
<ellipse fill="none" stroke="#000000" cx="495.6094" cy="-360.3143" rx="3.2" ry="3.2"/>
</g>
</g>
</svg>
